<svg xmlns="http://www.w3.org/2000/svg" viewBox="0 0 149.18 45.55"><defs><style>.cls-1,.cls-2{fill:#fff;}.cls-2{stroke:#2e2d53;stroke-linecap:square;stroke-miterlimit:10;}.cls-3{fill:#2e2d53;}.cls-4{isolation:isolate;}</style></defs><g id="レイヤー_2" data-name="レイヤー 2"><g id="web"><path class="cls-1" d="M6.14,17.75a6,6,0,0,1,6.14,6.31,6,6,0,0,1-6.14,6.3A6,6,0,0,1,0,24.06,6,6,0,0,1,6.14,17.75Zm0,1a4.92,4.92,0,0,0-5,5.28,4.92,4.92,0,0,0,5,5.28,4.94,4.94,0,0,0,5-5.28A4.94,4.94,0,0,0,6.14,18.78Z"/><path class="cls-1" d="M22.06,18.06v1h-5.7v4.22h4.7v1h-4.7v5.82h-1.1v-12Z"/><path class="cls-1" d="M31.3,18.06v1H25.6v4.22h4.7v1H25.6v5.82H24.5v-12Z"/><path class="cls-1" d="M39.06,18.06v11h5.7v1H38v-12Z"/><path class="cls-1" d="M47.3,30.06H46.16l5-12H52l5,12h-1.2l-1.44-3.48H48.72ZM51.52,19.7l-2.4,5.9h4.82Z"/><path class="cls-1" d="M63.22,18.06a2.91,2.91,0,0,1,3.26,3.06,2.67,2.67,0,0,1-1.42,2.56,2.91,2.91,0,0,1,2.06,3c0,1.9-1.12,3.38-3.7,3.38H59.5v-12Zm2.2,3.06A1.93,1.93,0,0,0,63.22,19H60.6v4.22h2.62A2,2,0,0,0,65.42,21.12Zm.6,5.56c0-1.26-.6-2.44-2.6-2.44H60.6v4.84h2.82C65.4,29.08,66,27.94,66,26.68Z"/><path class="cls-1" d="M76.76,18.06v1h-5.7v4.22h4.7v1h-4.7v4.84h5.7v1H70v-12Z"/><path class="cls-1" d="M81,18.06v11h5.7v1h-6.8v-12Z"/><g id="Layer_1" data-name="Layer 1"><rect class="cls-2" x="104.83" y="0.5" width="43.85" height="44.55"/><path class="cls-3" d="M148.68,29.71V45.19H129.2c4.48,0,8.1-5.67,8.1-12.67v0c6.29,0,11.38-1.26,11.38-2.81"/></g><g id="logo_jp" data-name="logo jp"><g class="cls-4"><g class="cls-4"><path class="cls-3" d="M119.39,28.6a.28.28,0,0,1,.08.2.27.27,0,0,1-.29.29h-3.47a.3.3,0,0,1-.21-.08.32.32,0,0,1-.08-.21V22.58a.29.29,0,0,1,.08-.21.31.31,0,0,1,.23-.08.28.28,0,0,1,.21.08.26.26,0,0,1,.09.21v5.94h3.15A.28.28,0,0,1,119.39,28.6Z"/><path class="cls-3" d="M125.11,28.82a.25.25,0,0,1-.09.2.24.24,0,0,1-.2.08.34.34,0,0,1-.17-.05.36.36,0,0,1-.11-.14l-.73-1.78h-3.16l-.72,1.78a.26.26,0,0,1-.26.19.28.28,0,0,1-.21-.07.25.25,0,0,1-.07-.18v0a.22.22,0,0,1,0-.09L122,22.45a.28.28,0,0,1,.29-.19.23.23,0,0,1,.17,0,.41.41,0,0,1,.12.14l2.55,6.25A.3.3,0,0,1,125.11,28.82Zm-4.24-2.27h2.71l-1.37-3.32Z"/><path class="cls-3" d="M130.32,26.06a2,2,0,0,1-.22,2.56,2.28,2.28,0,0,1-1.46.47H126a.29.29,0,0,1-.3-.29V22.58a.26.26,0,0,1,.09-.21.25.25,0,0,1,.21-.08h2.57a1.75,1.75,0,0,1,1.28.44,1.63,1.63,0,0,1,.46,1.23,1.69,1.69,0,0,1-.25.92,1.45,1.45,0,0,1-.72.59A1.78,1.78,0,0,1,130.32,26.06Zm-.92-2.89a1.18,1.18,0,0,0-.88-.31h-2.16v2.43h2.16a1.22,1.22,0,0,0,.86-.34,1.25,1.25,0,0,0,.34-.94A1.11,1.11,0,0,0,129.4,23.17Zm.27,5a1.44,1.44,0,0,0,0-2,1.72,1.72,0,0,0-1.07-.32h-2.23v2.65h2.25A1.64,1.64,0,0,0,129.67,28.19Z"/><path class="cls-3" d="M135.56,28.6a.32.32,0,0,1,.08.21.27.27,0,0,1-.29.28h-3.57a.27.27,0,0,1-.29-.29V22.58a.29.29,0,0,1,.08-.21.28.28,0,0,1,.21-.08h3.57a.28.28,0,0,1,.21.08.29.29,0,0,1,.08.21.28.28,0,0,1-.08.2.32.32,0,0,1-.21.08H132.1V25.3h2.81a.29.29,0,0,1,.21.08.28.28,0,0,1,.08.21.26.26,0,0,1-.08.21.28.28,0,0,1-.21.07H132.1v2.65h3.25A.32.32,0,0,1,135.56,28.6Z"/><path class="cls-3" d="M140.41,28.6a.28.28,0,0,1,.08.2.27.27,0,0,1-.29.29h-3.47a.3.3,0,0,1-.21-.08.28.28,0,0,1-.08-.21V22.58a.29.29,0,0,1,.08-.21.31.31,0,0,1,.23-.08.28.28,0,0,1,.21.08.26.26,0,0,1,.09.21v5.94h3.15A.28.28,0,0,1,140.41,28.6Z"/></g></g><g class="cls-4"><path class="cls-3" d="M121.14,17.64A3.19,3.19,0,0,1,120,18.91a3.44,3.44,0,0,1-3.4,0,3.19,3.19,0,0,1-1.17-1.27,4.15,4.15,0,0,1,0-3.64,3.1,3.1,0,0,1,1.17-1.26,3.44,3.44,0,0,1,3.4,0A3.1,3.1,0,0,1,121.14,14a4.15,4.15,0,0,1,0,3.64Zm-.55-3.34a2.65,2.65,0,0,0-3.7-1.05,2.62,2.62,0,0,0-1,1.05,3.4,3.4,0,0,0-.33,1.52,3.44,3.44,0,0,0,.33,1.53,2.62,2.62,0,0,0,1,1,2.58,2.58,0,0,0,3.7-1,3.31,3.31,0,0,0,.34-1.53A3.27,3.27,0,0,0,120.59,14.3Z"/><path class="cls-3" d="M127.44,12.47a.29.29,0,0,1,.08.21.3.3,0,0,1-.08.2.28.28,0,0,1-.21.08H124v2.47h2.83a.33.33,0,0,1,.22.08.29.29,0,0,1,.08.21.28.28,0,0,1-.08.2.29.29,0,0,1-.22.08H124v3a.29.29,0,0,1-.29.3.28.28,0,0,1-.22-.09.26.26,0,0,1-.09-.21V12.68a.31.31,0,0,1,.3-.3h3.58A.29.29,0,0,1,127.44,12.47Z"/><path class="cls-3" d="M133.4,12.47a.29.29,0,0,1,.08.21.3.3,0,0,1-.08.2.29.29,0,0,1-.22.08h-3.27v2.47h2.83a.29.29,0,0,1,.21.08.26.26,0,0,1,.09.21.29.29,0,0,1-.3.28h-2.83v3a.29.29,0,0,1-.08.21.31.31,0,0,1-.44,0,.29.29,0,0,1-.08-.21V12.68a.29.29,0,0,1,.29-.3h3.58A.29.29,0,0,1,133.4,12.47Z"/></g></g></g></g></svg>