<svg xmlns="http://www.w3.org/2000/svg" viewBox="0 0 400.32 368.85"><defs><style>.cls-1{fill:#fff;}.cls-2,.cls-3{fill:#f0a500;}.cls-3{stroke:#fff;stroke-miterlimit:10;}</style></defs><g id="レイヤー_2" data-name="レイヤー 2"><g id="web"><g id="scientist"><path class="cls-1" d="M397.61,171.62c-11.88-2.15-23.72-4.48-35.59-6.71l-35.53-7c-11.85-2.31-23.67-4.77-35.5-7.15l-17.74-3.67-4.43-.92-2.21-.46a6.74,6.74,0,0,0-1.84-.17,2.51,2.51,0,0,0-2.29,1.61c-.23.46-.47,1.24-.72,2l-.74,2.14c-8,22.78-16,45.56-24.22,68.26l-12.34,34c-4.22,11.31-8.33,22.66-12.64,33.94,3.66-11.5,7.51-23,11.25-34.42l11.55-34.32c7.71-22.88,15.63-45.68,23.56-68.48l.75-2.14c.27-.71.45-1.38.86-2.28a5.82,5.82,0,0,1,1.91-2.31,5.6,5.6,0,0,1,2.87-.95,9.13,9.13,0,0,1,2.66.24l2.21.46,4.43.94L291.58,148c11.8,2.55,23.61,5,35.39,7.68l35.35,7.82C374.09,166.2,385.87,168.81,397.61,171.62Z"/><path class="cls-1" d="M400.32,178q-7.83,22.38-16.18,44.54c-2.75,7.41-5.6,14.77-8.4,22.15l-8.55,22.09-8.71,22-2.2,5.5-1.11,2.74-.55,1.38-.28.69a8.76,8.76,0,0,1-.39.82,7,7,0,0,1-5.94,3.57c-.33,0-.56,0-.8,0l-.74,0-1.48-.06-3-.11q-23.68-.85-47.34-2.29,23.7-.32,47.38-.05l5.86,0a4.48,4.48,0,0,0,3.72-2.34c.09-.16.16-.34.24-.51l.26-.69.53-1.38,1.05-2.77,2.11-5.53,8.56-22.09,8.7-22c3-7.32,5.86-14.66,8.87-22Q390.88,199.77,400.32,178Z"/><path class="cls-1" d="M160.48,141.21c2.72.57,5.47.94,8.21,1.38s5.49.91,8.23,1.45a87.94,87.94,0,0,1,16.14,4.74,45.5,45.5,0,0,1,14.4,9.1,33.31,33.31,0,0,1,5.41,6.79,34,34,0,0,1,3.37,8c.39,1.43.66,2.78.94,4.14l.86,4.08c.55,2.73,1.12,5.45,1.63,8.18,1,5.47,2.06,10.93,3,16.41,1.85,11,3.49,22,4.74,33-2.48-10.84-4.77-21.71-7-32.57l-3.43-16.29-1.72-8.13-.89-4.07c-.29-1.35-.58-2.72-.94-4a30.16,30.16,0,0,0-3-7.32,31.94,31.94,0,0,0-4.87-6.25,45.72,45.72,0,0,0-13.35-9,100.66,100.66,0,0,0-15.54-5.45c-2.66-.74-5.36-1.39-8.05-2.06S163.12,142.08,160.48,141.21Z"/><path class="cls-1" d="M145.27,135.13c.9,0,1.8,0,2.71.06a6.25,6.25,0,0,1,1.39.21,2.13,2.13,0,0,1,.37.14,1.13,1.13,0,0,1,.37.28.89.89,0,0,1,.23.51,1.29,1.29,0,0,1-.09.51,6.66,6.66,0,0,1-2,2.1l-2.1,1.68a62.49,62.49,0,0,1-9,6.19,39.42,39.42,0,0,1-10.4,3.78,63.26,63.26,0,0,1-10.92,1.21,68.32,68.32,0,0,1-11-.58,48,48,0,0,1-10.65-2.79,30.91,30.91,0,0,1-9.47-5.68c-.34-.31-.67-.65-1-1a6.32,6.32,0,0,1-.87-1.21,3.5,3.5,0,0,1,1.59-5.09,4.6,4.6,0,0,1,2.7-.33,4.33,4.33,0,0,0-2.48.73,3,3,0,0,0-1.37,1.93,2.74,2.74,0,0,0,.55,2.16,7.75,7.75,0,0,0,1.82,1.67,26.15,26.15,0,0,0,4.47,2.67A38.17,38.17,0,0,0,95,146.23a61.17,61.17,0,0,0,20.74,2.57c7.05-.13,14-1.15,20.37-4.08a79.34,79.34,0,0,0,9.18-5.29l2.28-1.44c.39-.24.74-.47,1.1-.71a3.62,3.62,0,0,0,.82-.77c.08-.14.08-.15,0-.23a.83.83,0,0,0-.39-.28,5.69,5.69,0,0,0-1.23-.36C147.05,135.44,146.16,135.31,145.27,135.13Z"/><path class="cls-1" d="M78.19,138.15a46.28,46.28,0,0,1-11.31,6.78c-4,1.78-8.21,3.23-12.38,4.62S46.12,152.19,42,153.7a55.24,55.24,0,0,0-11.62,5.55,20.06,20.06,0,0,0-7.89,9.33,17.52,17.52,0,0,0-.86,2.95c-.2,1-.39,2.13-.58,3.19L20,181.2q-2,13-3.86,26l-3.75,26.07-1.93,13c-.64,4.33-1.27,8.73-2.18,13S6.45,268,5.46,272.29s-2,8.54-2.9,12.82c-.43,2.14-.81,4.28-1.09,6.43a17.56,17.56,0,0,0,.06,6.31,3.27,3.27,0,0,0,.64,1.26c.31.31.8.71,1.18,1.07l2.47,2.18c1.65,1.45,3.26,2.95,4.9,4.42-1.76-1.32-3.54-2.61-5.28-4l-2.62-2-.65-.5a6.87,6.87,0,0,1-.69-.55,4.23,4.23,0,0,1-.94-1.6A11.88,11.88,0,0,1,0,294.76a31.35,31.35,0,0,1,.1-3.36c.16-2.22.48-4.41.84-6.59,1.46-8.71,3.46-17.26,5-25.87.37-2.16.72-4.31,1-6.47L7.82,246l1.74-13.05c1.2-8.7,2.38-17.41,3.65-26.1s2.56-17.39,4.05-26.06l1.17-6.51c.21-1.09.4-2.15.64-3.27a20.93,20.93,0,0,1,1-3.35,22,22,0,0,1,9.05-10.29,54,54,0,0,1,12.24-5.44c4.21-1.38,8.46-2.53,12.68-3.71s8.43-2.4,12.51-4A50.47,50.47,0,0,0,78.19,138.15Z"/><path class="cls-1" d="M189.53,263.5a12.41,12.41,0,0,0,3.35-1.09,5.73,5.73,0,0,0,1.39-1,1.46,1.46,0,0,0,.53-1.26c-.19-.86-1.22-1.57-2.21-2.08a23.71,23.71,0,0,1-3.1-1.91,142.55,142.55,0,0,1-10.77-9.44c-.87-.78-1.75-1.54-2.65-2.21a10.63,10.63,0,0,0-1.3-.85c-.49-.23-.42-.18-1.1-.16a25.23,25.23,0,0,0-6.53,1.52l-6.69,2.35a56.44,56.44,0,0,1-7,2.07,19.09,19.09,0,0,1-1.91.27c-.33,0-.68,0-1,0h-.89a4.1,4.1,0,0,0-2.53.71,11.26,11.26,0,0,0-2.24,2.2c-.75.89-1.48,1.84-2.3,2.75a32.88,32.88,0,0,1-5.46,5l-1.52,1.06-1.48,1-3,1.95c-4,2.59-7.86,5.43-12.43,7.28a16.09,16.09,0,0,1-3.57,1,22.5,22.5,0,0,1-3.65.11c-1.19,0-2.39-.11-3.58-.21l-1.77-.2-.89-.11-.44-.05h-.22c-.05,0-.21,0-.14.08-.08-.08.09-.1.13-.11h1.57l1.78,0c1.18,0,2.37-.07,3.54-.16a25.36,25.36,0,0,0,3.46-.43,14.77,14.77,0,0,0,3.2-1.16,40.68,40.68,0,0,0,5.94-3.65c1.91-1.38,3.81-2.79,5.73-4.2l2.89-2.11,1.47-1,1.38-1a29.62,29.62,0,0,0,4.87-4.76l2.23-2.75a14.32,14.32,0,0,1,2.82-2.78,7.14,7.14,0,0,1,4.18-1.25l.9,0c.25,0,.49,0,.76,0,.53-.08,1.05-.12,1.6-.25,4.4-.88,8.83-2.77,13.43-4.17a27.31,27.31,0,0,1,7.35-1.44h.76a2.76,2.76,0,0,1,.4.06,4.41,4.41,0,0,1,1.18.45,10.54,10.54,0,0,1,1.64,1.15c1,.8,1.85,1.64,2.71,2.48,3.42,3.37,6.52,6.95,10.07,10a23.29,23.29,0,0,0,2.8,2.07c.25.18.51.34.76.53l.73.63a3.07,3.07,0,0,1,.95,1.83,2.24,2.24,0,0,1-.94,1.82,6.19,6.19,0,0,1-1.63.89A12.68,12.68,0,0,1,189.53,263.5Z"/><path class="cls-1" d="M142.22,257.62a17.41,17.41,0,0,1,1.38-1.48,7.22,7.22,0,0,1,1.73-1.12c1.22-.6,2.48-1.06,3.73-1.56a45,45,0,0,0,7.19-3.29c2.23-1.33,4.5-2.88,6.95-4.09.6-.31,1.2-.61,1.88-.89a6.23,6.23,0,0,1,1.17-.36,2.66,2.66,0,0,1,1.53.2,7.34,7.34,0,0,1,1.83,1.46l1.43,1.42,5.64,5.71,2.78,2.89,1.4,1.44.68.73a8.57,8.57,0,0,1,.74.84,4.72,4.72,0,0,1,.8,2.22,13.56,13.56,0,0,1,0,2.1,6.17,6.17,0,0,0,.55,3.57l.28.42a1.86,1.86,0,0,1,.29.54,1.67,1.67,0,0,1,0,1.28,1.93,1.93,0,0,1-2,1,3.15,3.15,0,0,1-1.9-.93,5.52,5.52,0,0,1-1.1-1.7,3.77,3.77,0,0,0,3,2.08,1.8,1.8,0,0,0,.81-.21,1,1,0,0,0,.47-.56.83.83,0,0,0-.09-.66.92.92,0,0,0-.22-.32l-.32-.39a4.52,4.52,0,0,1-.87-2.06,15.22,15.22,0,0,1-.2-2.08c-.06-1.32-.13-2.63-.78-3.39l-5.7-5.5-5.72-5.64-1.41-1.43a6.15,6.15,0,0,0-1.24-1.08.65.65,0,0,0-.43-.06,3.65,3.65,0,0,0-.75.23c-.56.22-1.16.51-1.75.79-1.22.57-2.35,1.15-3.51,1.82s-2.32,1.34-3.54,1.95a38.3,38.3,0,0,1-7.62,2.84c-1.29.36-2.58.72-3.83,1.15a7.5,7.5,0,0,0-1.76.84C143.24,256.74,142.73,257.19,142.22,257.62Z"/><path class="cls-1" d="M156.77,265.76a9.93,9.93,0,0,1,2.34,6.3,9,9,0,0,1-.64,3.58,7.64,7.64,0,0,1-2.26,3.1,9,9,0,0,1-.81.56c-.29.19-.47.29-.71.44l-1.39.78c-.93.51-1.88,1-2.84,1.46a36.38,36.38,0,0,1-6.06,2.33,36.73,36.73,0,0,1,4.84-4.35c.85-.66,1.72-1.28,2.6-1.88l1.34-.89c.21-.14.49-.3.64-.42a4.54,4.54,0,0,0,.5-.36,7.49,7.49,0,0,0,2.45-4.54A17.88,17.88,0,0,0,156.77,265.76Z"/><path class="cls-1" d="M173.27,261.63a2.82,2.82,0,0,1,1.15,2,2.63,2.63,0,0,1-1.08,2.46,3.24,3.24,0,0,1-2.89.08,5.5,5.5,0,0,1-1.14-.64,8.2,8.2,0,0,1-1-.77l-1.59-1.45c-.52-.44-1.05-.87-1.59-1.25a8.69,8.69,0,0,0-3.31-1.57,3.73,3.73,0,0,0-1.56,0,2.56,2.56,0,0,0-.74.24,6.63,6.63,0,0,0-.86.42,12.5,12.5,0,0,0-1.63,1c-.21.15-.43.4-.8.71a7.34,7.34,0,0,1-1.08.73,22.45,22.45,0,0,1-4.22,1.73,9.71,9.71,0,0,1-4.5.44,14.48,14.48,0,0,0,3.91-1.79,41.34,41.34,0,0,0,3.52-2.34,10.84,10.84,0,0,0,1.39-1.44,12.45,12.45,0,0,1,2-1.49,7.92,7.92,0,0,1,2.39-1.09,6.69,6.69,0,0,1,2.78-.05,10.4,10.4,0,0,1,4.47,2.26,17.44,17.44,0,0,1,1.7,1.62c.26.29.52.58.76.88l.67.84c.8,1,1.83,1.87,2.63,1.65a1.56,1.56,0,0,0,.95-1.19A2.82,2.82,0,0,0,173.27,261.63Z"/><path class="cls-1" d="M169.14,269.88a6.55,6.55,0,0,1-2.21,1.75,10,10,0,0,1-2.64.86,10.47,10.47,0,0,1-2.74.15,7.6,7.6,0,0,1-2.72-.7,16.78,16.78,0,0,1,2.59-.87c.85-.22,1.68-.4,2.52-.54s1.66-.29,2.51-.4S168.16,269.91,169.14,269.88Z"/><path class="cls-1" d="M98.81,113.4a17.3,17.3,0,0,1-.84,5.43,25,25,0,0,1-2.21,5,27.53,27.53,0,0,1-3.19,4.45A19.92,19.92,0,0,1,88.5,132c.94-1.58,1.88-3.08,2.82-4.58s1.83-3,2.71-4.52,1.7-3,2.5-4.61S98,115.07,98.81,113.4Z"/><path class="cls-1" d="M160.67,82.48a89.29,89.29,0,0,1-5,21.5,51.33,51.33,0,0,1-5.05,10,25.86,25.86,0,0,1-8.21,8.11,16,16,0,0,1-5.64,2,17.74,17.74,0,0,1-3,.21c-.5,0-1-.08-1.49-.12-.25,0-.5,0-.74-.08l-.72-.16c-.48-.11-1-.21-1.44-.33l-1.39-.47c-1-.29-1.74-.7-2.62-1s-1.72-.71-2.56-1.13l-2.49-1.29a36.13,36.13,0,0,1-9-6.7,8.63,8.63,0,0,1-.92-1.07l-.86-1.12a16.35,16.35,0,0,1-1.39-2.48,12.17,12.17,0,0,1-.84-2.69,7.36,7.36,0,0,1,0-2.77,9.2,9.2,0,0,0,1.54,5.08,19.18,19.18,0,0,0,1.56,2.14l.93,1a8.37,8.37,0,0,0,1,.9,38.67,38.67,0,0,0,9,5.66c1.65.73,3.28,1.46,5,2.07.83.3,1.69.7,2.5.9l1.23.36,1.25.24a7.5,7.5,0,0,0,1.25.16c.41,0,.83.08,1.24.1a15.63,15.63,0,0,0,2.47-.21,13.36,13.36,0,0,0,4.62-1.7,23.54,23.54,0,0,0,7.36-7.12,55.48,55.48,0,0,0,5.23-9.33A156.75,156.75,0,0,0,160.67,82.48Z"/><path class="cls-1" d="M111.18,0a72.33,72.33,0,0,0-8.47,2.65c-1.39.5-2.72,1.15-4.06,1.73l-2,1a19.92,19.92,0,0,0-1.91,1.08A44.81,44.81,0,0,0,81.84,18,52.72,52.72,0,0,0,74,33.34L72.69,37.5l-.91,4.27c-.33,1.42-.59,2.87-.8,4.32s-.44,2.91-.63,4.37C69.53,56.3,69,62.18,68.53,68.08s-.76,11.81-1.14,17.74-.71,11.86-1.37,17.8a70.13,70.13,0,0,1-1.53,8.84,20.17,20.17,0,0,1-1.56,4.24,7.58,7.58,0,0,1-1.33,1.84,3.84,3.84,0,0,1-2,1,4.81,4.81,0,0,0,2.89-3.08,19.75,19.75,0,0,0,1.15-4.23,73.5,73.5,0,0,0,.88-8.79c.32-5.9.35-11.83.5-17.77s.33-11.88.65-17.83.89-11.9,1.68-17.83c.2-1.48.43-3,.67-4.44s.5-2.95.86-4.43l1-4.42c.44-1.45.91-2.9,1.38-4.34A52.43,52.43,0,0,1,80,16.51,44.19,44.19,0,0,1,94.08,5.18a20.1,20.1,0,0,1,2-1c.69-.3,1.37-.61,2.07-.89,1.41-.5,2.8-1.07,4.25-1.45A59.93,59.93,0,0,1,111.18,0Z"/><path class="cls-1" d="M210.38,290.5c-.16,1-.35,2-.55,3a2.69,2.69,0,0,0-.11,1.28,1.59,1.59,0,0,0,.55.9,1.49,1.49,0,0,0,.89.37l1.4,0c1,0,2,0,3,0,2,0,4,0,6,.06l6,.23q6,.3,11.94.95a118.66,118.66,0,0,1,11.9,1.78,118.37,118.37,0,0,1-12,.55c-4,0-8-.07-12-.29l-6-.39c-2-.19-4-.32-6-.56-1-.12-2-.21-3-.34l-.74-.1c-.26,0-.46,0-.84-.13a3,3,0,0,1-1.68-1.08,2.89,2.89,0,0,1-.61-1.79,2.56,2.56,0,0,1,.15-.91,5.5,5.5,0,0,1,.32-.72C209.47,292.3,209.91,291.39,210.38,290.5Z"/><path class="cls-1" d="M206.26,294.62l-5.83.22-2.91.09-1.46,0c-.55,0-1-.07-1.48-.1L183,294c-7.74-.6-15.49-1.21-23.23-1.89s-15.47-1.36-23.2-2.07l-23.2-2.22h.3a6.43,6.43,0,0,1-.76,0,5.36,5.36,0,0,1-.78-.23,3.87,3.87,0,0,1-.68-.46,3.31,3.31,0,0,1-1-3.19,4.07,4.07,0,0,1,3.33-3.08,5.29,5.29,0,0,1,1-.11,6.41,6.41,0,0,1,.9,0l1.58.14,3.08.29,12.26,1.27c8.16.91,16.33,1.79,24.48,2.77s16.31,2,24.46,3l12.21,1.63,1.53.21.38.05.35,0,.77,0,3.08.09,6.16.23-6.16.23-3.08.09-.77,0a2.93,2.93,0,0,1-.42,0l-.39,0-1.53-.12-12.29-.94q-12.27-1-24.55-2.12l-24.52-2.28-12.26-1.19-3-.28-1.49-.12a4.87,4.87,0,0,0-.63,0,2.66,2.66,0,0,0-.52.06c-.18,0-.27.1-.42.12s-.23.11-.29.19a.76.76,0,0,0-.28.46.56.56,0,0,0,0,.36l-.09,0h.3l23.17,2.41c7.73.84,15.45,1.67,23.16,2.57s15.43,1.8,23.14,2.75l11.56,1.48c.47.06,1,.14,1.41.18l1.46,0,2.91.08Z"/><path class="cls-1" d="M193.77,311.23a90.86,90.86,0,0,1,7,12.29,30.4,30.4,0,0,1,2.42,6.92c.05.32.11.65.13,1l0,.53v.43l0,1.72c0,1.15.1,2.29.19,3.44.27,4.6.84,9.19,1.53,13.76a110.83,110.83,0,0,0,3,13.64,47.75,47.75,0,0,1-5.28-13.16c-.61-2.29-1-4.63-1.45-7s-.61-4.71-.79-7.08q-.09-1.78-.12-3.57v-2.59c0-.23,0-.49,0-.74a35.05,35.05,0,0,0-1.78-6.45C197.07,320,195.3,315.7,193.77,311.23Z"/><path class="cls-1" d="M97,274c-4.44.88-8.83,1.78-13.26,2.5-2.21.41-4.43.71-6.64,1.06l-6.68.91c-2.22.26-4.46.52-6.7.71a46.18,46.18,0,0,1-6.86.2,115.09,115.09,0,0,1-13.47-1.25c4.49-.55,9-.82,13.44-1.09,1.11-.08,2.23-.15,3.3-.25s2.17-.27,3.27-.43c2.21-.31,4.44-.59,6.66-.87l6.69-.74c2.24-.19,4.47-.43,6.72-.56A93.93,93.93,0,0,1,97,274Z"/><path class="cls-1" d="M121.72,292.56a31.26,31.26,0,0,0-7.21,1.82,62,62,0,0,0-6.78,3,73.09,73.09,0,0,0-6.46,3.63c-2.13,1.3-4.26,2.62-6.45,3.87a69.6,69.6,0,0,1-6.77,3.48,22,22,0,0,1-7.66,2.16c-4.89.28-9.88.85-14.82,1.32-9.89,1.1-19.83,2.08-29.53,4-1.21.25-2.41.52-3.58.85a13.86,13.86,0,0,0-3.3,1.31,5.88,5.88,0,0,1-4,.75,10.43,10.43,0,0,1-3.66-1.42c-4.41-2.72-7.45-6.81-10.74-10.53,1.82,1.71,3.49,3.58,5.33,5.25a29.09,29.09,0,0,0,5.9,4.41,9.36,9.36,0,0,0,3.33,1.11,4.58,4.58,0,0,0,3.14-.74,14.17,14.17,0,0,1,3.52-1.72c1.21-.45,2.42-.81,3.64-1.15,2.44-.69,4.9-1.21,7.36-1.71s4.94-.94,7.42-1.34,5-.76,7.43-1.1,5-.62,7.46-.9c5-.57,9.94-1,15-1.27A21.24,21.24,0,0,0,87,305.85c2.25-.91,4.46-2,6.66-3.13s4.38-2.33,6.58-3.52a72.64,72.64,0,0,1,6.85-3.25,54.94,54.94,0,0,1,7.17-2.42c1.22-.31,2.46-.56,3.71-.75A26.35,26.35,0,0,1,121.72,292.56Z"/><path class="cls-1" d="M181.4,171a69.32,69.32,0,0,0-.05,14.54,54.47,54.47,0,0,0,1.44,7q.93,3.48,2.12,6.93c.76,2.36,1.48,4.73,2.12,7.13s1.16,4.84,1.51,7.31a42.69,42.69,0,0,1,.55,7.5,18.65,18.65,0,0,1-1.5,7.32,24.21,24.21,0,0,0,0-7.26,64,64,0,0,0-1.37-7.1c-.61-2.34-1.21-4.69-2-7s-1.43-4.65-2.22-7-1.48-4.76-2-7.21a41.66,41.66,0,0,1-1-7.49A40.16,40.16,0,0,1,181.4,171Z"/><path class="cls-1" d="M203.79,186.74A60,60,0,0,1,205.86,202c.17,5.13,0,10.25-.25,15.34l-.5,7.62c-.09,1.26-.19,2.55-.24,3.75s0,2.44.11,3.67a73.75,73.75,0,0,0,1,7.46c.21,1.25.47,2.48.74,3.73.14.62.28,1.24.44,1.85.08.31.16.62.25.92a3.39,3.39,0,0,0,.15.45.59.59,0,0,0,.09.18s0-.13,0-.2c0,.08.07.15,0,.25s-.14-.11-.2-.17a4.78,4.78,0,0,1-.26-.42c-.16-.28-.32-.56-.46-.85-.29-.58-.55-1.17-.81-1.76-.51-1.18-.95-2.39-1.38-3.61a49.27,49.27,0,0,1-1.91-7.54,28.73,28.73,0,0,1-.41-3.95c0-1.35,0-2.6,0-3.89.09-2.56.23-5.11.34-7.65l.91-15.21A148.41,148.41,0,0,0,203.79,186.74Z"/><path class="cls-1" d="M134,173.08a21.82,21.82,0,0,1,6.92,5,63.72,63.72,0,0,1,5.54,6.53,105.1,105.1,0,0,1,8.92,14.54c1.27,2.54,2.48,5.12,3.53,7.8a49.32,49.32,0,0,0,3.52,7.42c1.37,2.39,2.89,4.74,4.47,7.06l2.35,3.51c.39.6.77,1.2,1.12,1.82a4.76,4.76,0,0,1,.74,2A4.7,4.7,0,0,0,170,227c-.45-.53-.93-1-1.41-1.57l-2.85-3.12a65.53,65.53,0,0,1-5.3-6.72,42.33,42.33,0,0,1-4.16-7.59c-1.09-2.53-2.29-5-3.58-7.52s-2.56-4.94-3.93-7.37-2.8-4.82-4.24-7.2-3-4.67-4.71-6.88A27,27,0,0,0,134,173.08Z"/><path class="cls-1" d="M146.35,67.93c.85,2,1.7,3.79,2.64,5.57s1.94,3.49,2.93,5.31c.48.91,1,1.83,1.4,2.84a11.83,11.83,0,0,1,.57,1.62,5.61,5.61,0,0,1,.24,2,2.94,2.94,0,0,1-1,2.1,6.76,6.76,0,0,1-1.51.88,6.17,6.17,0,0,1-3.29.46,9.57,9.57,0,0,0,2.5-1.7,8,8,0,0,0,.91-1,.91.91,0,0,0,.07-.71,9.42,9.42,0,0,0-1-2.32l-1.48-2.66a28.59,28.59,0,0,1-2.48-5.87A14.59,14.59,0,0,1,146.35,67.93Z"/><path class="cls-1" d="M53.56,202c-.17,4.85-.61,9.66-1.26,14.46-.31,2.41-.75,4.8-1.2,7.19s-1.08,4.76-1.77,7.12a42.52,42.52,0,0,1-2.75,6.93L43.13,244a17.2,17.2,0,0,0-2,6.51,43.86,43.86,0,0,0,.06,7.15,27.43,27.43,0,0,1-1.53-7.18,15.71,15.71,0,0,1,.24-3.8A19.4,19.4,0,0,1,41,243c.91-2.33,2-4.44,3-6.62a43.93,43.93,0,0,0,2.42-6.54c1.41-4.5,2.43-9.18,3.54-13.85S52.16,206.6,53.56,202Z"/><path class="cls-1" d="M152.65,22.45a35.43,35.43,0,0,1-5.18,4c-1.82,1.21-3.7,2.31-5.61,3.36s-3.85,2-5.8,3-3.94,1.83-5.92,2.7q-6,2.59-12.18,4.62c-2.07.68-4.16,1.3-6.27,1.84a28.79,28.79,0,0,1-6.47,1.08,55,55,0,0,0,6-2.47L117.12,38c3.94-1.74,7.88-3.49,11.83-5.18l11.89-5C144.79,26,148.77,24.43,152.65,22.45Z"/><path class="cls-1" d="M105.22,18.33a116.3,116.3,0,0,0-.8,13.7c-.07,4.57,0,9.15,0,13.73s.12,9.16.11,13.78-.34,9.22-.63,13.82a216.24,216.24,0,0,1-3.49,27.44c-.93,9.2-8.7,18.5-18.15,18.79a12.73,12.73,0,0,0,3.29-.9,15.73,15.73,0,0,0,3-1.58,20.52,20.52,0,0,0,4.89-4.54c.36-.42.66-.9,1-1.34a15.85,15.85,0,0,0,.9-1.4,11.31,11.31,0,0,0,1.35-2.92l.46-1.58.37-1.64c.27-1.09.41-2.22.62-3.33.71-4.48,1.25-9,1.66-13.56s.83-9.1,1.14-13.66.62-9.13.79-13.66.19-9.16.39-13.75.4-9.19.82-13.78A79.19,79.19,0,0,1,105.22,18.33Z"/><ellipse class="cls-2" cx="313.36" cy="231.85" rx="9.28" ry="8.25" transform="translate(0.02 463.73) rotate(-73)"/><path class="cls-1" d="M305.47,229.44a9.17,9.17,0,0,0,.49,6.66,6.84,6.84,0,0,0,10.57,2.5A9.65,9.65,0,0,0,319.76,228a6.86,6.86,0,0,0-10.16-3.83A9.2,9.2,0,0,0,305.47,229.44Zm0,0a11,11,0,0,1,3.9-5.6A8.34,8.34,0,0,1,322.14,227a10.72,10.72,0,0,1-4.21,13.75,9.07,9.07,0,0,1-3.71,1.21,8.37,8.37,0,0,1-3.79-.53,8.57,8.57,0,0,1-4.85-5.18A10.9,10.9,0,0,1,305.47,229.44Z"/><path class="cls-1" d="M319.05,222a1.24,1.24,0,0,0,.25,1.19.79.79,0,0,0,.95.22.68.68,0,0,0,.32-.57.85.85,0,0,1,.2-.7.65.65,0,0,0,.06-.64.79.79,0,0,0-.91-.35A1.26,1.26,0,0,0,319.05,222Zm0,0a3.3,3.3,0,0,1,.65-1.2,2.09,2.09,0,0,1,1.57-.74,2.26,2.26,0,0,1,1.89,1.07A2.67,2.67,0,0,1,322,225a2.28,2.28,0,0,1-2.16-.17,2.1,2.1,0,0,1-.89-1.49A3.29,3.29,0,0,1,319.05,222Z"/><path class="cls-1" d="M314.41,220.11a1.16,1.16,0,0,0,.24,1.11.73.73,0,0,0,.89.16.58.58,0,0,0,.23-.55c0-.16,0-.24,0-.31s.09-.12.19-.24a.57.57,0,0,0,.12-.58.71.71,0,0,0-.82-.36A1.14,1.14,0,0,0,314.41,220.11Zm0,0A3.2,3.2,0,0,1,315,219a2,2,0,0,1,1.49-.73,2.21,2.21,0,0,1,1.83,1,2.55,2.55,0,0,1-1.14,3.72,2.2,2.2,0,0,1-2.08-.18,2,2,0,0,1-.82-1.43A3.25,3.25,0,0,1,314.41,220.11Z"/><path class="cls-1" d="M80.48,80.18a79.73,79.73,0,0,1,0,10.37,89.72,89.72,0,0,1-1.18,10.3A46.53,46.53,0,0,1,76.43,111a25.45,25.45,0,0,1-2.54,4.67,16.51,16.51,0,0,1-3.72,3.74,29.1,29.1,0,0,0,2.43-4.47,38.1,38.1,0,0,0,1.62-4.72c.88-3.22,1.51-6.52,2.11-9.85s1.15-6.7,1.81-10.06S79.49,83.53,80.48,80.18Z"/><path class="cls-1" d="M181.28,125.78a13.47,13.47,0,0,1-3.17-3.67,29.24,29.24,0,0,1-2.07-4.43,68.09,68.09,0,0,1-2.65-9.38c-.64-3.19-1.19-6.38-1.59-9.61s-.7-6.43-1-9.65c-.63-6.42-1.1-12.86-1.64-19.28l-1.51-19.27c-.51-6.41-1-12.86-1.84-19.16a28.53,28.53,0,0,0-2.4-8.91,27.82,27.82,0,0,0-5.22-7.57c-4.38-4.42-10.09-7.47-16.06-9.66a87.17,87.17,0,0,0-9.19-2.82c-3.11-.81-6.3-1.37-9.38-2.37,1.57.38,3.17.57,4.77.81s3.19.5,4.78.79a86.87,86.87,0,0,1,9.49,2.19,55.79,55.79,0,0,1,9.11,3.67,36.51,36.51,0,0,1,8.12,5.73,28.23,28.23,0,0,1,6,8.1,31.26,31.26,0,0,1,2.83,9.62c.94,6.47,1.46,12.9,2,19.34s.94,12.87,1.35,19.31l1.13,19.31c.39,6.43.73,12.83,1.72,19.17a66.63,66.63,0,0,0,2,9.39,29.72,29.72,0,0,0,1.71,4.46A13.51,13.51,0,0,0,181.28,125.78Z"/><path class="cls-1" d="M156.77,105.16c.52,1,.86,2.07,1.29,3.06l.64,1.49c.11.24.21.49.31.73l.35.71c.23.48.46.95.67,1.43l.74,1.37.36.68.42.66c.27.43.51.89.81,1.31a37.51,37.51,0,0,0,3.83,4.84,38.78,38.78,0,0,0,4.79,4.34,13.56,13.56,0,0,1-6.32-2.55,19,19,0,0,1-4.81-5c-.32-.48-.59-1-.88-1.5a11.18,11.18,0,0,1-.75-1.56c-.21-.54-.45-1.06-.63-1.61s-.31-1.11-.45-1.66a8.74,8.74,0,0,1-.32-1.68l-.19-1.69A22.46,22.46,0,0,1,156.77,105.16Z"/><path class="cls-1" d="M43.37,319.36c0,2.12-.08,4.19.09,6.25s.38,4.08.69,6.11l1.07,6.16a20.91,20.91,0,0,1,.26,3.33,9.81,9.81,0,0,1-.19,1.83,8.49,8.49,0,0,1-.63,1.84,10.81,10.81,0,0,0-.47,1.24c-.15.45-.29.92-.41,1.41-.27,1-.47,2-.7,3-.48,2-.81,4.05-1.24,6.08-.79,4.08-1.58,8.18-2.6,12.28a89.91,89.91,0,0,1,.28-12.61c.16-2.1.44-4.18.76-6.28.18-1,.37-2.09.63-3.16a14.77,14.77,0,0,1,.44-1.6,12.68,12.68,0,0,1,.64-1.68,5.84,5.84,0,0,0,.57-2.39,24.57,24.57,0,0,0-.15-2.91c-.17-2-.5-4.13-.58-6.26a39,39,0,0,1,.17-6.39A31.15,31.15,0,0,1,43.37,319.36Z"/><path class="cls-1" d="M290.57,274.23h.7c.23,0,.47.09.71.13s.45.22.68.34a5.57,5.57,0,0,1,.58.51,5.15,5.15,0,0,1,1.1,2.81,16.13,16.13,0,0,1-.55,5.73A43.93,43.93,0,0,1,289.47,294a98.67,98.67,0,0,1-5.77,9.35c-1.05,1.51-2.16,3-3.35,4.4-.61.69-1.22,1.39-1.89,2-.35.32-.69.64-1.06.92a2.61,2.61,0,0,1-1.27.62,2.62,2.62,0,0,0,.94-.93c.27-.36.51-.75.74-1.13.46-.78.91-1.56,1.33-2.36.88-1.58,1.7-3.19,2.56-4.78,1.68-3.21,3.4-6.39,5.13-9.57.86-1.58,1.76-3.17,2.55-4.73s1.53-3.19,2.18-4.81c.33-.82.59-1.65.84-2.48a12.25,12.25,0,0,0,.48-2.5,4.43,4.43,0,0,0-.31-2.38A2.8,2.8,0,0,0,290.57,274.23Z"/><path class="cls-1" d="M275.9,278.58c.47-1,1-2.06,1.5-3.07a17.74,17.74,0,0,1,1.88-3,3.54,3.54,0,0,1,1.75-1.2,4,4,0,0,1,1.1-.11,4.24,4.24,0,0,1,1.06.14,3.13,3.13,0,0,1,1.9,1.42,5.22,5.22,0,0,1,.72,2,12.54,12.54,0,0,1,0,3.72,30.31,30.31,0,0,1-.62,3.47,61.55,61.55,0,0,1-2,6.61,57.27,57.27,0,0,1-6.21,12.3,48,48,0,0,1-9.1,10.23,127.64,127.64,0,0,0,7.1-11.43,98,98,0,0,0,5.4-12.13c.8-2.06,1.48-4.18,2.08-6.28a28.31,28.31,0,0,0,.77-3.15,13.57,13.57,0,0,0,.27-3,3.17,3.17,0,0,0-.27-1.2,1.22,1.22,0,0,0-.64-.66,2.86,2.86,0,0,0-1.19-.21,2,2,0,0,0-1.08.56,19.83,19.83,0,0,0-2.24,2.39Z"/><path class="cls-1" d="M257.8,296.68c.35-2.11.76-4.18,1.24-6.27a29.84,29.84,0,0,1,2.1-6.2,7,7,0,0,1,2.41-2.93,3.45,3.45,0,0,1,2.46-.46,5.83,5.83,0,0,1,.58.17l.44.19a7,7,0,0,1,.88.41,5.84,5.84,0,0,1,2.58,3.17,8.23,8.23,0,0,1,.27,3.81,21.45,21.45,0,0,1-2.24,6.38c-.48.95-1.08,1.95-1.51,2.78a20.11,20.11,0,0,0-1.12,2.72c-.62,1.93-1.05,4-1.84,6.1a6.94,6.94,0,0,1-1.88,2.85c-.83.66-1.67,1.32-2.53,2,.63-.87,1.28-1.71,1.95-2.54a6.44,6.44,0,0,0,1.06-2.69c.4-2,.51-4.11,1-6.27a15.7,15.7,0,0,1,1-3.24c.48-1.07.92-1.92,1.33-2.89s.81-1.86,1.12-2.8a13.94,13.94,0,0,0,.71-2.77,5.32,5.32,0,0,0-.08-2.47,3.2,3.2,0,0,0-1.28-1.68c-.16-.11-.36-.19-.54-.29l-.28-.15-.17-.07a.71.71,0,0,0-.59.07,5.44,5.44,0,0,0-1.69,1.81,40.38,40.38,0,0,0-2.73,5.51C259.57,292.8,258.78,294.78,257.8,296.68Z"/><path class="cls-1" d="M280.26,313.41c2-.9,3.85-1.83,5.74-2.72s3.76-1.76,5.57-2.67c.21-.11.49-.23.65-.33l.43-.27c.08-.1.22-.18.29-.28s.16-.18.17-.31a3.47,3.47,0,0,0-.13-2.19c-.52-1.83-1.64-3.74-2.19-5.89a20.53,20.53,0,0,1,4.36,5,7,7,0,0,1,.69,1.75,3.63,3.63,0,0,1,.13,1.06,5.23,5.23,0,0,1,0,.56l-.13.6a3.46,3.46,0,0,1-.5,1.11,5.47,5.47,0,0,1-.77.89,8.74,8.74,0,0,1-.88.62c-.3.18-.51.27-.76.41a28.78,28.78,0,0,1-6.15,2.2A18,18,0,0,1,280.26,313.41Z"/><path class="cls-1" d="M204.19,313.18c3.72-.35,7.44-.57,11.11-.88.47,0,.88-.1,1.39-.13l.8,0,.77.06a19.31,19.31,0,0,1,2.9.55,42,42,0,0,1,5.41,1.86c1.76.71,3.46,1.51,5.14,2.36l1.26.65a12.41,12.41,0,0,0,1.15.58,9.18,9.18,0,0,0,2.27.59,26.15,26.15,0,0,0,5.25.1,53.4,53.4,0,0,0,5.37-.57l-.19.05a26.58,26.58,0,0,1,4.85-1,46.22,46.22,0,0,1,4.82-.38c1.6-.08,3.2-.05,4.79,0s3.19.16,4.77.34l-4.72.63c-1.57.2-3.13.46-4.68.7s-3.08.55-4.59.88a30.56,30.56,0,0,0-4.35,1.29l-.07,0-.12,0a35.69,35.69,0,0,1-11.53.88c-.5,0-1-.17-1.53-.26a9.16,9.16,0,0,1-1.56-.56c-.58-.25-.92-.47-1.33-.68l-1.2-.65c-1.62-.85-3.26-1.66-4.9-2.45s-3.33-1.47-5-2.08a16.35,16.35,0,0,0-2.51-.71l-.62-.11-.59,0c-.42,0-.93,0-1.39,0A101.6,101.6,0,0,1,204.19,313.18Z"/><path class="cls-1" d="M240.05,306.65a21.06,21.06,0,0,1-3,.44,9,9,0,0,1-3.12-.22,6.67,6.67,0,0,1-2.86-1.65c-.66-.61-1.37-1-2.28-1.72a2.63,2.63,0,0,1-.74-.88,1.86,1.86,0,0,1,0-1.53,4.41,4.41,0,0,1,1.19-1.46,6.3,6.3,0,0,1,8.74.83,6.75,6.75,0,0,0-5.33-.64,4.86,4.86,0,0,0-2.13,1.21,2.91,2.91,0,0,0-.64.82c0,.09,0-.07,0-.1a2.39,2.39,0,0,0,.22.21,18.24,18.24,0,0,1,2.34,1.92,6.09,6.09,0,0,0,2,1.52C236.06,306.09,238.11,306.21,240.05,306.65Z"/><circle class="cls-3" cx="194.56" cy="273.3" r="7.13"/><circle class="cls-3" cx="200.6" cy="220.07" r="17.56"/><path class="cls-1" d="M218.16,265.12a8.83,8.83,0,1,1,8.83-8.83A8.84,8.84,0,0,1,218.16,265.12Z"/><path class="cls-1" d="M218.16,248a8.33,8.33,0,1,1-8.33,8.33,8.34,8.34,0,0,1,8.33-8.33m0-1a9.33,9.33,0,1,0,9.33,9.33,9.33,9.33,0,0,0-9.33-9.33Z"/></g></g></g></svg>