<svg xmlns="http://www.w3.org/2000/svg" viewBox="0 0 339.69 251.08"><defs><style>.cls-1{fill:#fff;}.cls-2{fill:#fc7e6c;}</style></defs><g id="レイヤー_2" data-name="レイヤー 2"><g id="web"><g id="scientist"><line x1="170.82" y1="116.48" x2="215.39" y2="161.05"/><path class="cls-1" d="M170.82,116.48c4.16,3.28,8.1,6.76,12,10.32,2,1.76,3.83,3.6,5.75,5.4l5.63,5.51,5.51,5.63c1.8,1.91,3.64,3.79,5.4,5.74,3.56,3.87,7,7.82,10.31,12-4.15-3.27-8.1-6.75-12-10.31-1.95-1.76-3.83-3.6-5.74-5.4l-5.63-5.51-5.51-5.63c-1.8-1.92-3.64-3.79-5.4-5.75C177.58,124.58,174.1,120.64,170.82,116.48Z"/><path class="cls-1" d="M133.53,172.31a36.71,36.71,0,0,1-4.15,2,27.15,27.15,0,0,0-4.13,1.88,33.87,33.87,0,0,0-6.83,5.85,41.15,41.15,0,0,1-7,6.15,21.59,21.59,0,0,1-8.86,3.61,12.57,12.57,0,0,1-2.46.17,12.87,12.87,0,0,1-2.47-.2,12.22,12.22,0,0,1-2.4-.6,11.4,11.4,0,0,1-2.28-.94,24.55,24.55,0,0,1-7.56-6c-1.12-1.18-2-2.37-3-3.57l-2.87-3.56c-1.93-2.35-3.87-4.68-5.93-6.83a33.45,33.45,0,0,0-6.71-5.6,18.3,18.3,0,0,0-8-2.6,30.13,30.13,0,0,0-8.66.85c-2.83.76-5.78,1.73-8.73,2.58-5.87,1.76-11.79,3.31-17.63,5.06a82.49,82.49,0,0,0-8.61,3c-2.75,1.18-5.61,2.56-7.28,5.19a10.65,10.65,0,0,1,3-3.51,29.07,29.07,0,0,1,4-2.43,77.17,77.17,0,0,1,8.5-3.62c5.78-2.09,11.62-3.95,17.4-5.89L45,161.81c1.42-.51,3-.93,4.46-1.4A32.76,32.76,0,0,1,59,159.26a20.85,20.85,0,0,1,9.31,2.92,35.59,35.59,0,0,1,7.38,6c2.16,2.28,4.11,4.68,6,7.07l2.86,3.6c.94,1.2,1.89,2.42,2.85,3.49a22,22,0,0,0,6.62,5.49,14.23,14.23,0,0,0,8.15,1.6,20.21,20.21,0,0,0,8.1-2.95,40.42,40.42,0,0,0,7.06-5.54,33.69,33.69,0,0,1,7.47-5.54,28.6,28.6,0,0,1,4.37-1.58A36.75,36.75,0,0,0,133.53,172.31Z"/><path class="cls-1" d="M172.19,146.54a34.63,34.63,0,0,1,.41,6.7,14.58,14.58,0,0,1-.62,3.45,7.83,7.83,0,0,1-.77,1.71l-.55.81-.73.72a6.07,6.07,0,0,1-3.76,1.41,11.44,11.44,0,0,1-3.69-.47c-2.22-.63-4.27-1.44-6.34-2.2-1-.39-2-.79-3-1.08a6.65,6.65,0,0,0-2.62-.43,2.9,2.9,0,0,0-1.89,1.15,9.94,9.94,0,0,0-.82,1.19c-.27.41-.53.9-.8,1.37-.53.95-1,1.93-1.56,2.91a12.67,12.67,0,0,1-2,2.91,3.6,3.6,0,0,1-1.78.9,4.09,4.09,0,0,1-1.86-.15,12,12,0,0,1-3-1.58,16.38,16.38,0,0,0,3.17.76,2.47,2.47,0,0,0,2.41-1,11.77,11.77,0,0,0,1.34-2.73c.39-1,.81-2.05,1.23-3.08a15.11,15.11,0,0,1,1.66-3.17,7,7,0,0,1,1.46-1.46,4.67,4.67,0,0,1,1-.55,6,6,0,0,1,1.09-.33,9,9,0,0,1,3.89.4c1.14.33,2.19.73,3.23,1.12,2,.81,4.1,1.63,6.09,2.29s3.83.83,5.19-.07,2.18-3,2.66-5.06S171.85,148.74,172.19,146.54Z"/><path class="cls-1" d="M172.19,107.88a25.32,25.32,0,0,1-5.85-1.88c-1.83-.8-3.56-1.64-5.29-2.24a22.51,22.51,0,0,0-5.41-1.14,32.64,32.64,0,0,1-6-1.18,31.83,31.83,0,0,1,6-1.18,14,14,0,0,1,6.4.67,21.38,21.38,0,0,1,5.48,3A50,50,0,0,1,172.19,107.88Z"/><path class="cls-1" d="M152.86,104.66a9.29,9.29,0,0,1,3.76,3.29c.95,1.37,1.65,2.67,2.47,3.8a16.3,16.3,0,0,0,1.3,1.63,4.38,4.38,0,0,0,1.33,1.09,4.94,4.94,0,0,0,4-.15,4.36,4.36,0,0,1-4.64,2.43,5.5,5.5,0,0,1-2.68-1.31,10.88,10.88,0,0,1-1.77-2,16.85,16.85,0,0,1-2.12-4.45C154.05,107.58,153.53,106.22,152.86,104.66Z"/><path class="cls-1" d="M178.45,110.92a10.26,10.26,0,0,1-3.41.94,13.08,13.08,0,0,1-3.53-.1,10.45,10.45,0,0,1-3.4-1.15,6,6,0,0,1-2.55-2.55,17.9,17.9,0,0,0,3.15,1.09c1,.27,2.07.46,3.13.64l3.23.5C176.17,110.47,177.28,110.63,178.45,110.92Z"/><path class="cls-1" d="M165.74,109.85c.92.3,1.69.57,2.48.81l2.33.68a27.94,27.94,0,0,1,4.86,1.73,6.81,6.81,0,0,1-2.71.55,9.16,9.16,0,0,1-2.7-.36,8.27,8.27,0,0,1-2.5-1.21A5.19,5.19,0,0,1,165.74,109.85Z"/><ellipse class="cls-1" cx="164.11" cy="110.55" rx="4.44" ry="3.22" transform="translate(-33.29 96.87) rotate(-30)"/><path class="cls-1" d="M160.26,112.77a2.61,2.61,0,0,0,2.58,1.14,4.51,4.51,0,0,0,2.51-1.22,5,5,0,0,0,1.35-2.08,2,2,0,0,0,0-1.53,1.86,1.86,0,0,0-1.31-.79,5,5,0,0,0-2.47.12,4.52,4.52,0,0,0-2.31,1.56A2.61,2.61,0,0,0,160.26,112.77Zm0,0a3.47,3.47,0,0,1,0-3,6.77,6.77,0,0,1,1.91-2.67,5.84,5.84,0,0,1,3.31-1.42,4.46,4.46,0,0,1,2.06.33,3.79,3.79,0,0,1,1.77,1.56,3.75,3.75,0,0,1,.45,2.31,4.33,4.33,0,0,1-.74,1.94A5.79,5.79,0,0,1,166.1,114a6.61,6.61,0,0,1-3.27.33A3.49,3.49,0,0,1,160.26,112.77Z"/><path class="cls-1" d="M204.4,178.75a17.48,17.48,0,0,1-2.32,1.08,4.91,4.91,0,0,1-2.59.35,2.07,2.07,0,0,1-1.16-.79,3.55,3.55,0,0,1-.5-1.27,15.27,15.27,0,0,1-.22-2.59l.35.34a3.21,3.21,0,0,1-2.18-.64,3.86,3.86,0,0,1-1.19-1.94,18,18,0,0,1-.43-4.21l.17.41c-8.57-8.06-17-16.31-25-24.92-2-2.17-4-4.37-5.88-6.67a39.92,39.92,0,0,1-2.74-3.65,8.94,8.94,0,0,1-.62-1.11,5.28,5.28,0,0,1-.29-.73,2.32,2.32,0,0,1-.09-.55,1.2,1.2,0,0,1,0-.38,2,2,0,0,1,.13-.51,12.2,12.2,0,0,1,.66-1.2c.24-.33.47-.67.71-1a72.9,72.9,0,0,1,6.21-6.53c2.14-2,4.31-4,6.48-6l6.48-6,1.61-1.49.79-.75.39-.38.2-.19a2.77,2.77,0,0,1,.55-.4,2.47,2.47,0,0,1,2.61.17,2.88,2.88,0,0,1,.27.22l.11.11.2.19.39.39,1.56,1.53c4.21,4.07,8.51,8.07,12.78,12.11l25.74,24.09-.6-.23a28.46,28.46,0,0,0,3.77-.52,10,10,0,0,1,2.17-.16,2.82,2.82,0,0,1,1.31.41,1.82,1.82,0,0,1,.78,1.38,4.84,4.84,0,0,1-.51,2.26c-.28.65-.62,1.24-.94,1.82-.65,1.17-1.35,2.32-2.11,3.43a45.9,45.9,0,0,1-5.16,6.12c-1.85,1.9-3.82,3.67-5.75,5.48,1.8-1.94,3.59-3.89,5.34-5.87a46.3,46.3,0,0,0,4.72-6.29c.68-1.11,1.29-2.27,1.86-3.44a18,18,0,0,0,.79-1.76,3.74,3.74,0,0,0,.31-1.59c-.05-.19-.08-.23-.16-.28a1.44,1.44,0,0,0-.58-.11,8.34,8.34,0,0,0-1.78.21,26.9,26.9,0,0,1-4.06.71h-.32l-.28-.25Q213,135.67,199.94,123.8q-6.54-5.91-12.95-12l-1.59-1.55-.4-.38-.19-.2-.09-.07a.1.1,0,0,1,.05,0,.51.51,0,0,0,.53,0l.11-.08-.2.19-.4.39-.81.77-1.61,1.52c-2.16,2-4.36,4-6.53,6s-4.34,3.94-6.46,6a77.3,77.3,0,0,0-6,6.18l-.59.79c-.2.26-.27.47-.43.7.14-.41,0-.41.07-.35a2.28,2.28,0,0,0,.12.29,7.45,7.45,0,0,0,.44.82,36.7,36.7,0,0,0,2.49,3.43c1.8,2.27,3.73,4.47,5.66,6.67,7.76,8.77,15.91,17.24,24,25.79l.18.18v.22a17.28,17.28,0,0,0,.18,4,3,3,0,0,0,.81,1.56,2.57,2.57,0,0,0,1.66.57l.35,0v.33a14.66,14.66,0,0,0,.07,2.49,2,2,0,0,0,1.22,1.79,4.61,4.61,0,0,0,2.43-.17A17.53,17.53,0,0,0,204.4,178.75Z"/><path class="cls-1" d="M236.61,149.76a3.86,3.86,0,0,1,1.65,2.32,4.94,4.94,0,0,1-.45,3,20.51,20.51,0,0,1-3.17,4.7c-1.16,1.43-2.42,2.76-3.65,4.08s-2.38,2.64-3.57,4c-2.37,2.7-4.75,5.45-7.42,8a39.42,39.42,0,0,1-4.24,3.59,17.26,17.26,0,0,1-4.92,2.57,28.83,28.83,0,0,0,3.95-3.68c1.21-1.31,2.35-2.68,3.49-4.07,2.25-2.79,4.48-5.63,6.89-8.38,1.22-1.37,2.46-2.73,3.81-4s2.65-2.47,4-3.68c.65-.61,1.29-1.23,1.9-1.85a14.48,14.48,0,0,0,1.68-2,4.14,4.14,0,0,0,.91-2.2A4,4,0,0,0,236.61,149.76Z"/><path class="cls-1" d="M297.82,146.54c-4.38.61-8.74,1-13.1,1.31l-13,.94c-4.33.31-8.66.61-12.95,1.1-2.15.25-4.29.52-6.4,1a16.42,16.42,0,0,0-6.05,2.14,8.8,8.8,0,0,1,2.59-2.13,22.82,22.82,0,0,1,3-1.42,44.28,44.28,0,0,1,6.42-1.85,92.88,92.88,0,0,1,13.13-1.79c4.4-.28,8.8-.4,13.19-.27A109.84,109.84,0,0,1,297.82,146.54Z"/><path class="cls-1" d="M310.7,153c-2.65.12-5.3,0-7.94,0s-5.28,0-7.91,0a152.14,152.14,0,0,0-15.71,1c-10.37,1.27-20.62,3.81-29.82,8.57a61.57,61.57,0,0,0-12.78,8.66c-1.88,1.71-3.82,3.56-5.74,5.4s-3.93,3.58-6,5.31c-4.07,3.42-8.32,6.77-13.32,9a13.84,13.84,0,0,1-4,1.09,6.14,6.14,0,0,1-4.08-1,19.7,19.7,0,0,1-2.83-2.88l-2.64-3,3,2.64a19.35,19.35,0,0,0,3,2.5,5.33,5.33,0,0,0,3.5.59,12.92,12.92,0,0,0,3.53-1.28,39.79,39.79,0,0,0,6.44-4.28l3-2.5,2.92-2.63c1-.86,1.9-1.81,2.86-2.71s1.91-1.8,2.82-2.74c1.86-1.86,3.69-3.72,5.67-5.61A62.53,62.53,0,0,1,248,160a74.81,74.81,0,0,1,15.11-5.66,94,94,0,0,1,15.85-2.56,121.48,121.48,0,0,1,16-.17c2.66.15,5.3.35,7.94.61S308.06,152.78,310.7,153Z"/><path class="cls-1" d="M213.88,197.9c4.09,1.32,8,2.88,12,4.52,2,.79,3.9,1.68,5.85,2.51l5.8,2.61,5.75,2.66c.95.45,1.9.91,2.86,1.32s1.93.86,2.79,1.17c.19.06.37.14.59.2l.77.11a5.69,5.69,0,0,0,1.29.09,5.44,5.44,0,0,0,2.34-1.31c1.67-1.28,3.33-2.65,5.1-3.86-1.32,1.7-2.67,3.32-4.1,4.94a13.58,13.58,0,0,1-1.21,1.18,4.29,4.29,0,0,1-1.71,1,6.06,6.06,0,0,1-1.88.15l-.82,0c-.3,0-.63-.11-.95-.17a24.39,24.39,0,0,1-3.19-1c-1-.36-2-.76-3-1.15-2-.8-3.94-1.66-5.88-2.55s-3.84-1.82-5.75-2.77-3.79-1.93-5.65-3A126.4,126.4,0,0,1,213.88,197.9Z"/><path class="cls-1" d="M66.06,108.06a34.81,34.81,0,0,1,.33,7.4l-.3,7.17C66,125,66,127.36,66,129.75s.11,4.78.07,7.3A25.5,25.5,0,0,1,63.64,130a33.33,33.33,0,0,1-.55-7.46,41.09,41.09,0,0,1,1-7.36C64.6,112.75,65.28,110.44,66.06,108.06Z"/><path class="cls-1" d="M197.57,81.82a28.64,28.64,0,0,1-1,6.22,49.06,49.06,0,0,1-4.7,11.45,30.82,30.82,0,0,1-3.58,5.17,39.11,39.11,0,0,1,1.42-6.11c.61-2,1.32-3.89,2.1-5.78s1.63-3.74,2.57-5.57A42.47,42.47,0,0,1,197.57,81.82Z"/><path class="cls-1" d="M215.39,72.9a2.67,2.67,0,0,0-2.17-.68,5.28,5.28,0,0,0-2.16.79,13.53,13.53,0,0,0-3.43,3.15,16.83,16.83,0,0,0-2.34,4,11.21,11.21,0,0,0-.89,4.41,5.84,5.84,0,0,0,1.5,3.86,7.87,7.87,0,0,0,3.72,2.08,23,23,0,0,0,4.5.66,18.34,18.34,0,0,0,4.51-.27,15.56,15.56,0,0,0,7.83-3.9,17.9,17.9,0,0,0,4.73-7.4,13.8,13.8,0,0,0,.76-4.25,45.15,45.15,0,0,0-.21-4.62c-.28-3.11-.74-6.23-1.27-9.34-1.06-6.23-2.41-12.43-4-18.57s-3.28-12.24-5.32-18.22a91.16,91.16,0,0,0-3.5-8.75,30.27,30.27,0,0,0-2.28-4c-.23-.3-.44-.6-.69-.9l-.78-.89c-.51-.6-1-1.17-1.57-1.76a35.16,35.16,0,0,0-7.12-6.12A11.93,11.93,0,0,0,200.94.45a4.86,4.86,0,0,0-4.36,1.14A5.06,5.06,0,0,1,201,0a12.39,12.39,0,0,1,4.63,1.48,36,36,0,0,1,7.73,5.81c.57.56,1.17,1.11,1.72,1.7l.83.87c.28.3.55.64.82,1A30,30,0,0,1,219.38,15a80,80,0,0,1,4,8.82,202.55,202.55,0,0,1,10,37.09c.53,3.17,1,6.36,1.24,9.6a47,47,0,0,1,.18,4.92,15.53,15.53,0,0,1-1,5.1,20.39,20.39,0,0,1-5.64,8.41,17.64,17.64,0,0,1-9.19,4.2,23.26,23.26,0,0,1-9.92-.86,9.54,9.54,0,0,1-4.38-2.77,7.08,7.08,0,0,1-1.63-4.93,12.15,12.15,0,0,1,1.28-4.82,17.62,17.62,0,0,1,2.73-4.06,13.44,13.44,0,0,1,3.79-3,5.69,5.69,0,0,1,2.35-.64A2.83,2.83,0,0,1,215.39,72.9Z"/><path class="cls-1" d="M172.19,66.5A27,27,0,0,1,168.28,72a48.67,48.67,0,0,1-4.89,4.74A56.69,56.69,0,0,1,152,84.34a33.94,33.94,0,0,1-13.33,3.9A16.32,16.32,0,0,1,131.48,87a13.12,13.12,0,0,1-5.64-4.88c-.63-.91-1.24-1.83-1.88-2.72s-1.3-1.78-2-2.61a34.51,34.51,0,0,0-4.43-4.68,23.91,23.91,0,0,0-5.32-3.45,42.73,42.73,0,0,0-6.11-2.28c-4.24-1.32-8.67-2.47-12.87-4.24a50.36,50.36,0,0,1-6.14-3,23.6,23.6,0,0,1-5.41-4.1,26.75,26.75,0,0,0,5.85,3.23,61,61,0,0,0,6.27,2.28c4.25,1.32,8.59,2.25,13,3.36a44.76,44.76,0,0,1,6.59,2.21,23.88,23.88,0,0,1,6,3.74,46.61,46.61,0,0,1,8.9,10.64,10.24,10.24,0,0,0,4.36,3.87,13.46,13.46,0,0,0,6,1.14,33.69,33.69,0,0,0,12.49-3.17,64.49,64.49,0,0,0,11.48-6.64,58.12,58.12,0,0,0,5.17-4.23A29.88,29.88,0,0,0,172.19,66.5Z"/><path class="cls-1" d="M156.08,1.58a22.82,22.82,0,0,0-3.31,6.78,12.24,12.24,0,0,0,.24,7.22,21.61,21.61,0,0,0,3.72,6.33c1.56,1.95,3.28,3.8,5,5.64A136.81,136.81,0,0,1,172.08,39a52,52,0,0,1,7.74,13.64l.35,1c.08.26.19.53.3.8.22.54.48,1.07.74,1.61a21,21,0,0,0,1.91,3,17.74,17.74,0,0,0,5.24,4.68A18.17,18.17,0,0,0,195,65.94a25.2,25.2,0,0,0,7.24-.27,37.92,37.92,0,0,0,7.16-2c1.17-.43,2.32-.92,3.47-1.43a16.68,16.68,0,0,1,3.82-1.32,6.58,6.58,0,0,1,2.17,0,4.78,4.78,0,0,1,2,.89,7.31,7.31,0,0,1,2.25,3.45,27.18,27.18,0,0,1,1.11,7.65,30.58,30.58,0,0,0-2-7.29,6.13,6.13,0,0,0-2.12-2.71,4,4,0,0,0-3.12-.34,9.54,9.54,0,0,0-1.64.6c-.54.24-1.07.55-1.66.84l-1.74.88-1.79.79a39.9,39.9,0,0,1-7.48,2.44,27.06,27.06,0,0,1-8,.53,20.07,20.07,0,0,1-7.81-2.4A22,22,0,0,1,177,53.7a52.61,52.61,0,0,0-7.17-13c-3-4.05-6.4-7.76-9.77-11.63a71.74,71.74,0,0,1-4.88-6A22.65,22.65,0,0,1,151.66,16,12.93,12.93,0,0,1,152,8.13,21.17,21.17,0,0,1,156.08,1.58Z"/><path class="cls-1" d="M108.52,10.49A58.42,58.42,0,0,0,112,23.64a20.37,20.37,0,0,0,8.27,9.63c3.68,2.26,8.09,3.31,12.53,4.67a29.94,29.94,0,0,1,6.59,2.66,11.63,11.63,0,0,1,2.81,2.27A8.78,8.78,0,0,1,144,45.93a10.72,10.72,0,0,0-5.25-4,39.11,39.11,0,0,0-6.51-1.71c-2.24-.43-4.52-.93-6.81-1.56a29.64,29.64,0,0,1-6.68-2.81,20.38,20.38,0,0,1-5.53-4.9,21.74,21.74,0,0,1-3.37-6.47A34.49,34.49,0,0,1,108.52,10.49Z"/><path class="cls-1" d="M178.45,1.76a20.32,20.32,0,0,1-.14,3.74c-.11,1.24-.26,2.46-.33,3.68a28.17,28.17,0,0,0,.26,7.13A15.38,15.38,0,0,0,185.89,27a28.17,28.17,0,0,0,6.41,2.89c1.11.43,2.29.69,3.44,1.05s2.35.57,3.54.8c4.77,1,9.66,1.54,14.6,2.19a64.59,64.59,0,0,1-15,.12,35.78,35.78,0,0,1-14.59-4.5,18.83,18.83,0,0,1-5.8-5.45,16.13,16.13,0,0,1-2.59-7.52,24.66,24.66,0,0,1,.6-7.65c.29-1.23.61-2.44,1-3.63A31.44,31.44,0,0,0,178.45,1.76Z"/><path class="cls-1" d="M88.43,46.68a31.76,31.76,0,0,0-6.21-10.79A19.06,19.06,0,0,0,77.61,32a10,10,0,0,0-5.42-1.57,8.86,8.86,0,0,0-5.11,2,17.63,17.63,0,0,0-3.92,4.35A35.58,35.58,0,0,0,60.22,42a49.78,49.78,0,0,0-2.11,5.78,55.35,55.35,0,0,0-2.35,12.1,48.8,48.8,0,0,0,.38,12.31,46,46,0,0,0,3.47,11.88,46.57,46.57,0,0,0,2.82,5.6,24.41,24.41,0,0,0,1.69,2.66L65.88,95l-2.12-2.38a23.91,23.91,0,0,1-2-2.47,42.36,42.36,0,0,1-3.45-5.41,42.79,42.79,0,0,1-4.46-12.11,52.07,52.07,0,0,1,1.42-25.72,41.4,41.4,0,0,1,5.58-11.82,20.66,20.66,0,0,1,4.71-4.86A11.18,11.18,0,0,1,67,29.32a10.3,10.3,0,0,1,1.63-.71,10.06,10.06,0,0,1,3.53-.54,10.52,10.52,0,0,1,3.45.67,12.46,12.46,0,0,1,3,1.58A20.87,20.87,0,0,1,83.36,35,28.43,28.43,0,0,1,88.43,46.68Z"/><path class="cls-1" d="M246.28,214.18c.76.74,1.4,1.53,2.14,2.12.37.33.7.48,1.22,1a2.94,2.94,0,0,1,.36.46,4.89,4.89,0,0,1,.26.51,5.3,5.3,0,0,1,.26.91,22.86,22.86,0,0,1,.38,3.15c.07,1,.09,2,.1,3.05a55.73,55.73,0,0,1-.32,6c-.12,1-.26,2-.45,3-.1.5-.19,1-.32,1.51l-.19.76-.11.38h0c-.1,0,.22,0-.22,0v0l0,0,0-.1.07-.19.06.19,0,.1v.07c-.44,0-.13,0-.22,0h0l-.11-.38-.19-.76c-.12-.5-.21-1-.32-1.51-.19-1-.33-2-.44-3a55.87,55.87,0,0,1-.32-6c0-2,.13-4.09.19-5.91a5.31,5.31,0,0,0,0-.58c0-.06,0-.12,0-.18s0-.1,0-.17c-.15-.29-.58-.8-.83-1.28A9.78,9.78,0,0,1,246.28,214.18Z"/><path class="cls-1" d="M252.72,240c6.92,2.78,13.86,5.42,21,6.76A98.74,98.74,0,0,0,295.66,248c3.68-.08,7.37-.29,11.06-.56s7.37-.56,11.06-.89,7.37-.73,11-1.23l2.75-.39,2.73-.46c.9-.19,1.83-.32,2.72-.56.45-.12.91-.21,1.35-.34l1.32-.44a27.61,27.61,0,0,1-5.18,2.15c-.9.29-1.8.53-2.7.79l-2.72.7q-5.47,1.26-11,2.11A187.26,187.26,0,0,1,295.74,251a109,109,0,0,1-11.28-.24,68.61,68.61,0,0,1-11.2-1.81A74.12,74.12,0,0,1,252.72,240Z"/><path class="cls-1" d="M268.65,228.59a14.53,14.53,0,0,0,1.16,5.56,14,14,0,0,0,3.26,4.61,13.85,13.85,0,1,0,0-20.34,14,14,0,0,0-3.26,4.61A14.53,14.53,0,0,0,268.65,228.59Zm0,0a15.24,15.24,0,0,1,4.12-10.46A15.3,15.3,0,0,1,298,222.45a15.45,15.45,0,0,1,0,12.27,15.63,15.63,0,0,1-3.59,5.09,15.29,15.29,0,0,1-11.22,4.11,15.45,15.45,0,0,1-10.46-4.87A15.24,15.24,0,0,1,268.65,228.59Z"/><path class="cls-1" d="M20.79,1.58a24.11,24.11,0,0,1-4,6.24c-1.59,1.9-3.23,3.73-4.85,5.54S8.69,17,7.27,18.9a24.62,24.62,0,0,0-3.55,5.91A9.94,9.94,0,0,0,3,27.9c-.05.47,0,1.17,0,1.75s0,1.22,0,1.84c-.07,2.44-.06,4.87-.08,7.29.07,4.83.29,9.65,1.88,14.34a23.3,23.3,0,0,1-3-6.84A47.81,47.81,0,0,1,.47,38.9C.2,36.43.14,34,0,31.5c0-.62,0-1.23,0-1.84s0-1.17,0-1.93a12.87,12.87,0,0,1,.91-4,26.12,26.12,0,0,1,4.12-6.56,60.29,60.29,0,0,1,5.18-5.4C12,10,13.88,8.44,15.69,6.8A34.49,34.49,0,0,0,20.79,1.58Z"/><path class="cls-1" d="M14.34,69.22c.31,5.42.31,10.84.33,16.26s-.1,10.83-.26,16.25c-.28,10.83-.82,21.64-1.52,32.46s-1.61,21.61-3.38,32.4a148.52,148.52,0,0,1-4,15.84l-2.42,7.75a35.48,35.48,0,0,0-1.65,7.9,31.13,31.13,0,0,1,.85-8.1c.55-2.67,1.21-5.29,1.8-7.93s1.18-5.26,1.7-7.91,1.05-5.29,1.38-7.92c.65-5.31,1.15-10.69,1.54-16.07S9.55,139.38,9.9,134l2.18-32.36Z"/><circle class="cls-1" cx="227.77" cy="121.93" r="7.92"/><path class="cls-1" d="M227.77,114.51a7.42,7.42,0,1,1-7.41,7.42,7.43,7.43,0,0,1,7.41-7.42m0-1a8.42,8.42,0,1,0,8.42,8.42,8.41,8.41,0,0,0-8.42-8.42Z"/><path class="cls-2" d="M224.8,151.64a5.94,5.94,0,1,1,5.94-5.94A5.95,5.95,0,0,1,224.8,151.64Z"/><path class="cls-1" d="M224.8,140.26a5.44,5.44,0,1,1-5.44,5.44,5.45,5.45,0,0,1,5.44-5.44m0-1a6.44,6.44,0,1,0,6.44,6.44,6.45,6.45,0,0,0-6.44-6.44Z"/><path class="cls-2" d="M266.4,121.43a15.35,15.35,0,1,1,15.35-15.35A15.37,15.37,0,0,1,266.4,121.43Z"/><path class="cls-1" d="M266.4,91.24a14.85,14.85,0,1,1-14.85,14.84A14.86,14.86,0,0,1,266.4,91.24m0-1a15.85,15.85,0,1,0,15.85,15.84A15.85,15.85,0,0,0,266.4,90.24Z"/></g></g></g></svg>