<svg xmlns="http://www.w3.org/2000/svg" viewBox="0 0 333.76 341.96"><defs><style>.cls-1,.cls-3{fill:#fff;}.cls-2{fill:#333;}.cls-3,.cls-4{stroke:#fff;stroke-miterlimit:10;}.cls-4{fill:#fc7e6c;}</style></defs><g id="レイヤー_2" data-name="レイヤー 2"><g id="web"><g id="scientist"><path class="cls-1" d="M105.82,113.28a7.82,7.82,0,0,0-2.15-2.39,7.14,7.14,0,0,0-2.33-1.16,4.14,4.14,0,0,0-1.12-.12,7.37,7.37,0,0,0-1.36.19c-1,.23-2.07.58-3.32.91a6.09,6.09,0,0,1,2.31-3,5.62,5.62,0,0,1,1.92-.87,4.88,4.88,0,0,1,2.31,0,5.62,5.62,0,0,1,3.38,2.55A4.11,4.11,0,0,1,105.82,113.28Z"/><path class="cls-1" d="M244.65,2.73C240.09,4.4,235.56,6,231.23,7.88c-.55.22-1.08.48-1.6.75L228,9.39c-1,.55-2.07,1.09-3,1.7a26.64,26.64,0,0,0-5.37,4.16,15.6,15.6,0,0,0-4.58,12,14,14,0,0,0,1.64,6.49,12.5,12.5,0,0,0,4.83,5,11.33,11.33,0,0,1-6.07-4.16,13.9,13.9,0,0,1-1.85-3.36c-.2-.61-.41-1.22-.56-1.85s-.27-1.26-.33-1.89a17.94,17.94,0,0,1,.67-7.68,17.06,17.06,0,0,1,4.1-6.63,32.66,32.66,0,0,1,12.91-7.45A63.94,63.94,0,0,1,244.65,2.73Z"/><path class="cls-1" d="M221.51,43.87c1.76,1.39,3.76,2.32,5.46,4a4.19,4.19,0,0,1,1,1.69,2.52,2.52,0,0,1-.45,2.2l-.32.43-.3.32c-.21.22-.42.41-.63.62-.41.39-.83.77-1.25,1.15a23,23,0,0,0-2.29,2.18,3.27,3.27,0,0,0-.65,1c-.09.31-.06.36.06.55,0,0,.06.1.12.15l.16.18a6.3,6.3,0,0,0,.55.48,7.68,7.68,0,0,0,1.19.79,6.38,6.38,0,0,0,1.27.54c.22.06.44.12.65.16l.53.07h1.45v1.45a8,8,0,0,1-.5,2.59,16,16,0,0,0-.6,1.78s0,0,0,0a.53.53,0,0,0-.06-.25.82.82,0,0,0-.43-.45s0,0,0,0h5.15l-1.06,2.14a13.15,13.15,0,0,0-.73,1.77,4.43,4.43,0,0,0-.28,1.48V71s0,0,0,0,0-.09-.07-.11l-.12-.09s-.12,0-.11,0h0s.06,0,.15,0h.27l2.15,0,1.9,0-.6,1.76a9.69,9.69,0,0,0-.51,5,1.51,1.51,0,0,0,1.2,1.18,5.07,5.07,0,0,1,.54.09c.21,0,.44,0,.65,0a12.48,12.48,0,0,0,1.35-.11,28.1,28.1,0,0,0,5.5-1.59c1.82-.71,3.62-1.5,5.39-2.39a35.33,35.33,0,0,1-4.91,3.38,23.79,23.79,0,0,1-5.6,2.43,15,15,0,0,1-1.57.31c-.27,0-.54.06-.83.07l-.92-.06a5.75,5.75,0,0,1-1-.27,4.81,4.81,0,0,1-.92-.54,5.94,5.94,0,0,1-.72-.78,5.7,5.7,0,0,1-.46-.88,7.71,7.71,0,0,1-.42-3.46,15.59,15.59,0,0,1,.58-3.21l1.31,1.82-2.15,0h-.27l-.37,0-.53-.08a2.48,2.48,0,0,1-.6-.25,1.57,1.57,0,0,1-.53-.43,2,2,0,0,1-.39-.53q-.12-.27-.21-.54a4.64,4.64,0,0,1-.09-.46,6.68,6.68,0,0,1,.37-2.73,17.1,17.1,0,0,1,.86-2.21l1.33,2.16h-2.58l-.21,0-.42,0c-.17,0-.37-.09-.55-.15a2.18,2.18,0,0,1-1.24-1.13,2.46,2.46,0,0,1-.18-.77,3.32,3.32,0,0,1,0-.56,12.7,12.7,0,0,1,.77-2.34,5.25,5.25,0,0,0,.37-1.63l1.44,1.44a5.47,5.47,0,0,1-1.12-.16,7.44,7.44,0,0,1-.95-.28,9.41,9.41,0,0,1-1.75-.84,9.66,9.66,0,0,1-1.53-1.14c-.25-.2-.45-.43-.68-.65s-.26-.3-.38-.45a2.35,2.35,0,0,1-.33-.54,3.58,3.58,0,0,1-.26-.64c0-.24-.08-.48-.1-.72a3.45,3.45,0,0,1,.3-1.29,5.55,5.55,0,0,1,1.22-1.7,23.86,23.86,0,0,1,2.72-2.2l1.33-1c.21-.17.43-.33.62-.5L226,51l.21-.21a1.11,1.11,0,0,0,.35-.91,3,3,0,0,0-.55-1.21C224.8,47,222.92,45.6,221.51,43.87Z"/><path class="cls-1" d="M243.28,77.29c.43,1.35.93,2.57,1.41,3.83l1.44,3.74c.47,1.26.9,2.54,1.3,3.83a30,30,0,0,1,1,4A17.77,17.77,0,0,1,246,89.31a25.69,25.69,0,0,1-1.75-3.76,20.25,20.25,0,0,1-1.06-4A9.9,9.9,0,0,1,243.28,77.29Z"/><path class="cls-1" d="M242.08,87.57a70.24,70.24,0,0,0-6,8.06c-.88,1.42-1.67,2.88-2.55,4.37a18.35,18.35,0,0,1-3.26,4.18,34.44,34.44,0,0,1-4.14,3.22c-1.4,1-2.83,1.88-4.25,2.79-2.84,1.84-5.68,3.63-8.37,5.54a32.48,32.48,0,0,0-3.75,3.07,9,9,0,0,0-.81.83,8,8,0,0,0-.72.86,5.35,5.35,0,0,0-.6.89,8.29,8.29,0,0,0-.51,1c-.64,1.43-1.14,3-1.85,4.69a10.4,10.4,0,0,1-3.4,4.65,8.68,8.68,0,0,1-5.7,1.33c-.46,0-.93-.09-1.38-.16l-1.32-.3-1.21-.29c-.39-.08-.78-.21-1.16-.25a5.45,5.45,0,0,0-4,.42,2.37,2.37,0,0,0-.86,1.56,5.57,5.57,0,0,0,.1,2.15l.27,1.08-1,0c-2.14-.1-4.29-.22-6.43-.34s-4.28-.27-6.43-.45q3.22-.25,6.43-.45c2.14-.12,4.29-.24,6.43-.33l-.75,1a7.21,7.21,0,0,1-.38-2.85,4.31,4.31,0,0,1,1.33-2.87,5.38,5.38,0,0,1,2.86-1.22l1.42-.08,1.38.1c.46,0,.88.14,1.33.2l1.26.22,1.17.2c.38,0,.76.06,1.14.09a6.08,6.08,0,0,0,3.93-1,8.33,8.33,0,0,0,2.35-3.53c.62-1.47,1.09-3.09,1.81-4.76a10.57,10.57,0,0,1,.63-1.26,7.56,7.56,0,0,1,.8-1.22,9.59,9.59,0,0,1,.89-1.09,12.68,12.68,0,0,1,1-1,36.22,36.22,0,0,1,4.12-3.29c2.82-2,5.76-3.7,8.66-5.42l4.33-2.58a31,31,0,0,0,4-2.77A17.91,17.91,0,0,0,232,99c.95-1.35,1.89-2.8,2.95-4.15A50.78,50.78,0,0,1,242.08,87.57Z"/><path class="cls-1" d="M144.38,131.28a.82.82,0,0,1,.9-.29,2.12,2.12,0,0,1,.85.55,8,8,0,0,1,1.16,1.57,23,23,0,0,1,1.62,3.49,43.21,43.21,0,0,1,1.94,7.41,43.68,43.68,0,0,1,.66,7.68,32,32,0,0,1-.27,3.9c-.07.65-.2,1.32-.31,1.94l-.34,1.84-1.45,7.35c-.54,2.45-1,4.91-1.64,7.35s-1.24,4.88-2,7.29c-.41,1.2-.82,2.4-1.34,3.57a18.48,18.48,0,0,1-.89,1.71,5.5,5.5,0,0,1-.6.77,1.2,1.2,0,0,1-.85.43,1.06,1.06,0,0,0,.67-.57,5.23,5.23,0,0,0,.37-.84,17.16,17.16,0,0,0,.51-1.77c.27-1.21.51-2.42.7-3.65.43-2.45.76-4.92,1.15-7.39s.76-4.94,1.13-7.41.85-4.94,1.3-7.41L148,157c.12-.61.24-1.16.32-1.76a35.27,35.27,0,0,0,.33-3.58,55.69,55.69,0,0,0-.13-7.3,62.26,62.26,0,0,0-1-7.3,27.33,27.33,0,0,0-.95-3.55,8.45,8.45,0,0,0-.76-1.64,2,2,0,0,0-.59-.62A.72.72,0,0,0,144.38,131.28Z"/><path class="cls-1" d="M149.53,131.28c3.74.59,7.39.92,11.13,1.42.94.14,1.88.27,2.84.48a16.51,16.51,0,0,1,2.92.86,7.88,7.88,0,0,1,1.49.82,6,6,0,0,1,.75.64,5.09,5.09,0,0,1,.38.5l.24.44a14,14,0,0,1,.91,3,60.13,60.13,0,0,1,.78,11.38,73.48,73.48,0,0,1-.88,11.27c-.64-3.73-1.05-7.45-1.45-11.15s-.76-7.42-1.4-10.93a11.6,11.6,0,0,0-.63-2.33c0-.29-.67-.75-1.37-1.09a31.92,31.92,0,0,0-5-1.64A47.81,47.81,0,0,1,149.53,131.28Z"/><path class="cls-1" d="M170.09,169.84a94.53,94.53,0,0,1-2,9.83,42,42,0,0,1-1.58,4.84,14.37,14.37,0,0,1-1.19,2.39,6.32,6.32,0,0,1-.92,1.16,3.09,3.09,0,0,1-1.68.92c-6.72.7-13.19,1.81-20.2,1.37a12.2,12.2,0,0,1-2.79-.56,3.82,3.82,0,0,1-1.67-1.07,4.4,4.4,0,0,1-.36-.52l-.18-.4a4.72,4.72,0,0,1-.26-.74,30.24,30.24,0,0,1-.86-5.18c-.28-3.37-.45-6.7-.47-10a199,199,0,0,1,.73-20c.65,6.64,1.1,13.27,1.61,19.88.3,3.3.52,6.6.95,9.84a31,31,0,0,0,.84,4.63,2.06,2.06,0,0,0,.16.43l.07.17s0,0,0,0a1.24,1.24,0,0,0,.43.2,8.6,8.6,0,0,0,2.09.37,67.18,67.18,0,0,0,9.71-.09c1.64-.09,3.29-.21,4.95-.33l2.48-.18,1.27-.07.65,0h.52c.13.06.75-.41,1.15-1a15.75,15.75,0,0,0,1.2-2,46.09,46.09,0,0,0,2-4.47C167.92,176.15,169,173,170.09,169.84Z"/><path class="cls-1" d="M93,108.14a28.26,28.26,0,0,1,2.55-3.46,7.14,7.14,0,0,1,1.86-1.5,4.1,4.1,0,0,1,2.72-.27,12.08,12.08,0,0,1,2.2.72c.67.26,1.33.59,1.93.83a9.24,9.24,0,0,0,3.44.89c.31,0,.62,0,1.12,0a3.93,3.93,0,0,1,1.56.43,7.31,7.31,0,0,1,2,1.64c1,1,1.9,2.1,2.77,3.23a28.32,28.32,0,0,1,2.42,3.57,12.9,12.9,0,0,1,.91,2,4.15,4.15,0,0,1,.28,2.17,5,5,0,0,0-1-1.78,17.78,17.78,0,0,0-1.36-1.52c-1-1-2-1.91-3-2.85l-3-2.81-.7-.63-.31-.23-.26-.14a1.15,1.15,0,0,0-.46-.11c-.19,0-.58,0-1,0a9,9,0,0,1-2.44-.42A12.87,12.87,0,0,1,103,107c-.67-.34-1.24-.67-1.84-1a16.2,16.2,0,0,0-1.68-.83,2.3,2.3,0,0,0-1.39-.18,5.77,5.77,0,0,0-1.63.79C95.32,106.52,94.19,107.39,93,108.14Z"/><path class="cls-1" d="M116.1,133.85a15.56,15.56,0,0,1,8.5,4.49c2.37,2.18,4.28,4.74,6.5,6.34a11.67,11.67,0,0,0,1.82,1.06l2.07,1.11c1.38.75,2.75,1.51,4.09,2.32a74.77,74.77,0,0,1,7.87,5.25,75.39,75.39,0,0,1-8.92-3.15c-1.46-.59-2.88-1.23-4.31-1.88a29.56,29.56,0,0,1-4.36-2.27,19.68,19.68,0,0,1-3.59-3.52c-1-1.24-1.94-2.47-2.88-3.67A23.66,23.66,0,0,0,116.1,133.85Z"/><path class="cls-1" d="M121.25,123.57a16.53,16.53,0,0,0,3,1c1,.29,2,.53,3,.81,2,.55,4,1.15,6,1.87a29.88,29.88,0,0,1,11.07,6.57,38,38,0,0,1-6.18-1.76c-1.93-.66-3.93-1.27-5.91-2a50.09,50.09,0,0,1-5.88-2.5,24.62,24.62,0,0,1-2.81-1.69A7.83,7.83,0,0,1,121.25,123.57Z"/><path class="cls-1" d="M252.36.16a42.34,42.34,0,0,1,13.48.9,20,20,0,0,1,6.29,3,19.84,19.84,0,0,1,4.75,5.18,36,36,0,0,1,3.2,6.12c.42,1.05.87,2.11,1.24,3.17s.78,2.13,1.11,3.23a54.14,54.14,0,0,1,2.34,13.53A47.09,47.09,0,0,1,283.31,49a27.69,27.69,0,0,1-2.73,6.49,13.45,13.45,0,0,1-1,1.49,8.61,8.61,0,0,1-1.17,1.4l-.64.66c-.23.2-.49.39-.73.58l-.75.56c-.24.19-.44.31-.66.47a15.35,15.35,0,0,0-4.36,4.4,10.67,10.67,0,0,0-1.67,5.87,6.05,6.05,0,0,0,.78,2.88,5.9,5.9,0,0,0,.44.58c.18.19.36.4.56.58.39.37.8.74,1.23,1.08a48.94,48.94,0,0,0,5.47,3.81,38.15,38.15,0,0,1-6-3.14,14.79,14.79,0,0,1-1.4-1c-.23-.17-.44-.38-.67-.56s-.43-.46-.63-.7a7.46,7.46,0,0,1-1.29-3.42,12.21,12.21,0,0,1,1.44-7,16.8,16.8,0,0,1,4.69-5.33c.23-.18.5-.37.68-.53l.57-.49.56-.48.49-.58a7.76,7.76,0,0,0,.93-1.19,14.53,14.53,0,0,0,.83-1.31,24.9,24.9,0,0,0,2.25-5.91,45.69,45.69,0,0,0,1.22-12.85,53.61,53.61,0,0,0-2.06-12.83,55.27,55.27,0,0,0-4.82-12.1,18.73,18.73,0,0,0-4-4.89,18.69,18.69,0,0,0-5.52-3.15A50.7,50.7,0,0,0,252.36.16Z"/><path class="cls-1" d="M278.07,74.72c1.17.54,2.36,1,3.52,1.55a5.32,5.32,0,0,1,.85.51,1.66,1.66,0,0,1,.65.83,1.36,1.36,0,0,1-.17,1.07,4.23,4.23,0,0,1-.6.82,22.69,22.69,0,0,1-3,2.5c-1,.75-2.1,1.49-3.19,2.19-4.34,2.76-8.86,5.19-13.42,7.54-2.28,1.17-4.57,2.32-6.89,3.42L254.1,96l-.87.41c-.21.09-.13.06-.16.08s0,0,0,0l0,3.55,0,14.64,11.77-7.46,13-8.12q6.53-4,13.1-8a.56.56,0,0,0,.15-.93.71.71,0,0,0-.28-.16l-.47-.19c-.3-.13-.6-.28-.89-.44a9.13,9.13,0,0,1-2.94-2.62,19.31,19.31,0,0,1-1.8-3.42l-1.6-3.5,1.85,3.37A19.8,19.8,0,0,0,287,86.48a8.78,8.78,0,0,0,2.88,2.3,9,9,0,0,0,.85.36,3.12,3.12,0,0,0,.43.15,1.51,1.51,0,0,1,.56.29,1.38,1.38,0,0,1,.5,1.2,1.43,1.43,0,0,1-.7,1.11q-6.36,4.31-12.77,8.53l-12.84,8.41L259.46,113l-3.23,2.07-1.61,1-.41.26a2,2,0,0,1-2.58-.37,1.89,1.89,0,0,1-.43-.86,1.93,1.93,0,0,1,0-.45v-7l0-7.67V96.69a2,2,0,0,1,.1-.76,1.75,1.75,0,0,1,.49-.77,2.18,2.18,0,0,1,.66-.41l.87-.39,1.75-.78,6.94-3.23c4.6-2.21,9.2-4.44,13.63-6.95,1.11-.62,2.19-1.28,3.26-2a22,22,0,0,0,3-2.26c.42-.42.87-1,.76-1.45s-.74-.87-1.26-1.19C280.36,75.88,279.19,75.34,278.07,74.72Z"/><path class="cls-1" d="M296.07,92.72A31.46,31.46,0,0,0,302,95.47a24,24,0,0,1,5.95,2.83,16.2,16.2,0,0,1,4.44,5,41.9,41.9,0,0,1,2.92,5.94c3.27,8.11,6.06,16.36,8.64,24.69q2,6.24,3.62,12.58c1.1,4.23,2.13,8.48,2.87,12.86.16,1.1.32,2.2.43,3.33l.1,1.73c0,.58,0,1,.06,1.57a58.47,58.47,0,0,0,.82,6.3,124,124,0,0,1,1.89,13.06,30.31,30.31,0,0,1-.29,6.84,16.19,16.19,0,0,1-2.61,6.62,13.06,13.06,0,0,1-2.48,2.66c-.95.78-1.8,1.34-2.71,2-1.8,1.27-3.61,2.49-5.44,3.68-7.35,4.73-14.8,9.25-22.48,13.41-3.84,2.08-7.72,4.1-11.72,5.91a66.11,66.11,0,0,1-6.15,2.44,19.52,19.52,0,0,1-3.31.81c-.3,0-.62.05-.92.07s-.56,0-.84,0c-.56,0-1.13-.07-1.69-.13a8.56,8.56,0,0,1-3.37-1.07,4.71,4.71,0,0,1-2-3,30.43,30.43,0,0,1-.27-6.64q.15-6.52.4-13,.24,6.53.4,13a29.84,29.84,0,0,0,.57,6.35,3.45,3.45,0,0,0,1.6,2.19,7.17,7.17,0,0,0,2.85.71c.52,0,1,.07,1.57.06h.78c.24,0,.47,0,.71-.08a17.87,17.87,0,0,0,3-.86,63.46,63.46,0,0,0,5.87-2.59c3.87-1.92,7.67-4,11.41-6.17,7.48-4.37,14.88-8.91,22.06-13.74,1.79-1.21,3.59-2.42,5.34-3.67.84-.62,1.8-1.27,2.52-1.89a9.93,9.93,0,0,0,1.94-2.1c2.21-3.16,2.57-7.44,2.31-11.59a122.82,122.82,0,0,0-1.79-12.75,61.45,61.45,0,0,1-.82-6.64c0-.55,0-1.18-.06-1.68L328,162.9c-.1-1-.23-2.09-.37-3.14-.64-4.22-1.59-8.44-2.62-12.64s-2.13-8.4-3.3-12.57c-2.38-8.34-4.86-16.67-7.77-24.82a40.15,40.15,0,0,0-2.53-5.9,15.28,15.28,0,0,0-3.94-4.9,24.17,24.17,0,0,0-5.65-3.05A30.86,30.86,0,0,1,296.07,92.72Z"/><path class="cls-1" d="M272.93,193a41.83,41.83,0,0,1,3.64,8,37.22,37.22,0,0,1,1.8,8.73,25.44,25.44,0,0,1-.81,9,16,16,0,0,1-4.63,7.65,28.1,28.1,0,0,0,2.32-8.14,40.27,40.27,0,0,0,.13-8.29c-.21-2.78-.62-5.57-1.09-8.39S273.26,195.93,272.93,193Z"/><path class="cls-1" d="M285.79,108.14a43.71,43.71,0,0,0-1.58,7c-.39,2.33-.72,4.67-1,7s-.67,4.71-1.05,7.09-.83,4.75-1.48,7.16a33.76,33.76,0,0,1-.88-7.33,46.3,46.3,0,0,1,.44-7.34,34.92,34.92,0,0,1,1.74-7.21A16,16,0,0,1,285.79,108.14Z"/><path class="cls-1" d="M165,187.84a13.25,13.25,0,0,0,3.76-2.94,9.48,9.48,0,0,0,1.22-1.92,15.61,15.61,0,0,1,1.27-2.29c.15-.2.34-.4.52-.6s.44-.37.67-.54a6.94,6.94,0,0,1,.77-.39c.25-.1.51-.15.78-.23a5.21,5.21,0,0,1,.76-.12,6.23,6.23,0,0,1,.72-.05c.44,0,.89,0,1.32,0a34.59,34.59,0,0,1,5.07.67c1.65.33,3.26.73,4.85,1.13l2.34.6c.38.09.76.17,1.11.23.19,0,.33,0,.5.08l.61.06a81.09,81.09,0,0,1,9.87,1.3,83,83,0,0,1-9.88,1l-.63,0c-.24,0-.51,0-.73,0-.46,0-.9-.08-1.33-.13-.85-.11-1.67-.27-2.48-.42l-4.81-1c-1.58-.32-3.15-.6-4.69-.77-.39-.06-.76-.07-1.14-.1-.21,0-.34,0-.51,0a3.24,3.24,0,0,0-.46,0,2.15,2.15,0,0,0-1.44.66c-.45.44-.87,1.17-1.41,1.85a11,11,0,0,1-1.86,1.93A10,10,0,0,1,165,187.84Z"/><path class="cls-1" d="M221.51,123.57a29.83,29.83,0,0,1-1.08,7.42c-.63,2.41-1.43,4.74-2.25,7s-1.65,4.52-2.39,6.79-1.36,4.6-2,7a20.24,20.24,0,0,1-.31-7.56,35,35,0,0,1,1.87-7.29c.84-2.34,1.83-4.59,2.86-6.8S220.31,125.79,221.51,123.57Z"/><path class="cls-1" d="M288.36,185.27a25.68,25.68,0,0,1,5.21,4,42.53,42.53,0,0,1,4.25,4.95,45.37,45.37,0,0,1,3.46,5.5,29.78,29.78,0,0,1,2.5,6.08,51,51,0,0,1-4.46-4.76c-1.37-1.65-2.67-3.33-3.92-5.05s-2.47-3.44-3.64-5.23S289.42,187.24,288.36,185.27Z"/><path class="cls-1" d="M296.07,177.56a9.58,9.58,0,0,1,5.56.11,18.17,18.17,0,0,1,5,2.32,22.86,22.86,0,0,1,4.2,3.44,18,18,0,0,1,3.23,4.41,46.63,46.63,0,0,1-4.71-2.57c-1.47-.92-2.91-1.85-4.34-2.76s-2.83-1.84-4.29-2.67A30.13,30.13,0,0,0,296.07,177.56Z"/><path class="cls-1" d="M301.21,190.41c.46-.14.92-.25,1.4-.35a10.35,10.35,0,0,1,1.48-.06,5.2,5.2,0,0,1,3,1.13,9,9,0,0,1,2,2.39,13.28,13.28,0,0,0,1.37,2,7.8,7.8,0,0,0,1.68,1.37,16.85,16.85,0,0,0,2.18,1.06,6.85,6.85,0,0,0,4.91.22,4.34,4.34,0,0,1-2.36,1.79,7.13,7.13,0,0,1-3.08.29,10.91,10.91,0,0,1-2.93-.82,8.33,8.33,0,0,1-2.64-1.91,11.15,11.15,0,0,1-1.62-2.59,12.62,12.62,0,0,0-1.11-2.07C304.7,191.69,303,191,301.21,190.41Z"/><path class="cls-1" d="M273.07,206a14.63,14.63,0,0,1-3.57-.22,20.18,20.18,0,0,1-3.41-.91,17.9,17.9,0,0,1-3.21-1.55,8.11,8.11,0,0,1-2.66-2.46c1.14.4,2.24.69,3.33,1s2.16.69,3.23,1.09,2.13.81,3.18,1.3A19.84,19.84,0,0,1,273.07,206Z"/><path class="cls-1" d="M34,270c-2.25-19.25-4.32-38.52-6.48-57.78l-6.19-57.8c-2.1-19.27-4.06-38.55-6-57.83L9.37,38.73l-.21-2.06,2,.48,18.65,4.49,18.63,4.54,37.25,9.08.94.23.1,1,4.38,45,4.2,45c1.4,15,2.81,30,4.12,45l3.94,45.05-5-44.94c-1.69-15-3.28-30-4.88-45l-4.8-45L84,56.72l1,1.18L47.78,49,29.13,44.53,10.49,40l1.81-1.57L18,96.3c1.89,19.28,3.78,38.57,5.55,57.87l5.37,57.88C30.58,231.36,32.37,250.65,34,270Z"/><path class="cls-1" d="M8.27,38.58.34,41.39l.18-.26Q4.47,69.33,8,97.57l3.45,28.26,3.3,28.28C16.88,173,19,191.83,20.9,210.71s3.76,37.77,5.36,56.69Q22.18,239.22,18.63,211c-2.41-18.83-4.65-37.67-6.85-56.52l-3.2-28.29-3-28.3Q2.56,69.54,0,41.18L0,41l.19,0Z"/><path class="cls-1" d="M206.23,182.84a29.16,29.16,0,0,1-3.47-3.47c-.55-.61-1.12-1.19-1.71-1.75a5.87,5.87,0,0,1-1.5-2,3.28,3.28,0,0,1,.14-2.57,8.32,8.32,0,0,1,1.47-2.08,26.24,26.24,0,0,1,3.82-3.17,140.77,140.77,0,0,1,17.21-9.6q8.87-4.28,17.92-8.13a190,190,0,0,1,18.52-6.85,85.24,85.24,0,0,1,19.53-3.71,64.51,64.51,0,0,1,10,.19,46.78,46.78,0,0,1,5,.78,16.17,16.17,0,0,1,4.92,2.11,12.72,12.72,0,0,1,3.86,3.87,14.31,14.31,0,0,1,1.95,5.06,22.41,22.41,0,0,1-.75,10.38,34,34,0,0,1-4.39,9.24,38.38,38.38,0,0,1-3.16,4,35.56,35.56,0,0,1-3.74,3.52c-5.18,4.11-10.53,7.92-15.92,11.67s-10.87,7.37-16.42,10.87c-2.79,1.74-5.58,3.47-8.42,5.13s-5.69,3.31-8.74,4.75c-.74.37-1.59.67-2.38,1s-1.61.53-2.4.76c-1.6.46-3.2.9-4.8,1.28-3.21.77-6.44,1.43-9.69,2a124.71,124.71,0,0,1-19.68,2,62.37,62.37,0,0,1-9.93-.59,27.88,27.88,0,0,1-9.59-3,15,15,0,0,1-3.93-3.31,25.64,25.64,0,0,1-2.74-4.22,14.11,14.11,0,0,1-1.49-4.85,9.45,9.45,0,0,1,.88-5,11.67,11.67,0,0,1,3.13-3.93,20,20,0,0,1,4.19-2.66,36.58,36.58,0,0,1,9.39-2.88,36.55,36.55,0,0,0-9.18,3.28c-2.83,1.51-5.54,3.61-6.81,6.52a8.62,8.62,0,0,0-.64,4.57,13,13,0,0,0,1.54,4.43,24.28,24.28,0,0,0,2.73,3.91,14,14,0,0,0,3.65,2.86,26.92,26.92,0,0,0,9.1,2.63,61,61,0,0,0,9.66.36,122.22,122.22,0,0,0,19.3-2.4c3.18-.63,6.36-1.35,9.49-2.18,1.57-.41,3.14-.84,4.68-1.31.77-.23,1.53-.48,2.27-.74s1.41-.56,2.13-.93c2.86-1.39,5.68-3,8.46-4.72s5.55-3.42,8.29-5.18q8.23-5.3,16.28-10.88c5.34-3.74,10.64-7.56,15.71-11.6A31.56,31.56,0,0,0,300.39,161a19.45,19.45,0,0,0,.72-9,10.57,10.57,0,0,0-4.53-7.1,13.16,13.16,0,0,0-4.05-1.77,40.82,40.82,0,0,0-4.64-.77,61.41,61.41,0,0,0-9.59-.28,70.31,70.31,0,0,0-9.58,1.13c-3.18.53-6.32,1.33-9.45,2.16a190.48,190.48,0,0,0-18.44,6.39c-6.06,2.42-12.07,5-18,7.71a139.58,139.58,0,0,0-17.38,8.93,25.22,25.22,0,0,0-3.83,3,7.52,7.52,0,0,0-1.42,1.87,2.79,2.79,0,0,0-.2,2.19,5.38,5.38,0,0,0,1.31,1.94c.57.59,1.12,1.21,1.64,1.84A29.05,29.05,0,0,0,206.23,182.84Z"/><path class="cls-1" d="M213.66,177.41a24.27,24.27,0,0,1,5.36-2.57,35.53,35.53,0,0,1,5.8-1.5,20.11,20.11,0,0,1,6.22-.17,6.49,6.49,0,0,1,3.39,1.47,4.12,4.12,0,0,1,1.17,2,7.13,7.13,0,0,1,.07,2,9.2,9.2,0,0,1-1.22,3.3,12.67,12.67,0,0,1-2.1,2.52,18.26,18.26,0,0,1-5.24,3.41,9.85,9.85,0,0,1-3.17.87,17.46,17.46,0,0,1-3.08-.22,10.62,10.62,0,0,1-3-.91,4.09,4.09,0,0,1-1.26-1,2,2,0,0,1-.42-1.46,2.29,2.29,0,0,0,2,1.65A10.59,10.59,0,0,0,221,187a15.86,15.86,0,0,0,2.77-.27,9.1,9.1,0,0,0,2.34-1,19.14,19.14,0,0,0,4.27-3.33,8,8,0,0,0,2.35-4.18,5.88,5.88,0,0,0,0-.93,1.07,1.07,0,0,0-.29-.51,4.16,4.16,0,0,0-1.91-.82,22,22,0,0,0-5.44-.29A60.17,60.17,0,0,0,213.66,177.41Z"/><line class="cls-2" x1="36.4" y1="90.15" x2="128.96" y2="123.57"/><path class="cls-1" d="M36.4,90.15c7.93,2.2,15.75,4.68,23.54,7.25,3.9,1.27,7.77,2.63,11.65,3.95l11.6,4.1,11.54,4.25c3.83,1.47,7.68,2.89,11.49,4.41,7.64,3,15.24,6.09,22.74,9.46-7.93-2.2-15.75-4.68-23.54-7.26-3.9-1.26-7.77-2.63-11.65-3.94l-11.6-4.1L70.63,104c-3.83-1.47-7.67-2.89-11.48-4.41C51.51,96.61,43.91,93.51,36.4,90.15Z"/><path class="cls-1" d="M113.53,133.85a16.62,16.62,0,0,1-8.91-7.5c-1-1.68-1.72-3.53-2.59-5a8.63,8.63,0,0,0-3.41-3.47c-.35-.23-.75-.42-1.14-.64s-.87-.45-1.31-.7a12.28,12.28,0,0,1-1.37-.9,3.14,3.14,0,0,1-.88-1l-.07-.13c0-.07,0-.14-.07-.21a1.51,1.51,0,0,1-.08-.49,1.65,1.65,0,0,1,.42-1.11,1.94,1.94,0,0,1,1-.59,6.31,6.31,0,0,1,1.81-.17h.74a8.13,8.13,0,0,1,.84.06,9.07,9.07,0,0,1,3.07,1.23,49.87,49.87,0,0,1,4.81,3.24c1.54,1.14,3,2.37,4.61,3.38a27.4,27.4,0,0,1-5.37-2.12c-1.71-.83-3.42-1.68-5.09-2.4a11.83,11.83,0,0,0-1.24-.46,5.26,5.26,0,0,0-.58-.17l-.26-.07a1.42,1.42,0,0,0-.19,0,10.47,10.47,0,0,0-2.29.19s0,0,.35-.25a1.27,1.27,0,0,0,.29-.79,1.42,1.42,0,0,0,0-.32l0-.12,0,0c-.15-.24,0,0,.11,0a8.1,8.1,0,0,0,1.05.62c.39.22.79.42,1.21.63s.91.46,1.35.75a12,12,0,0,1,2.52,2,11.13,11.13,0,0,1,1.83,2.67c.87,1.88,1.48,3.61,2.19,5.33A21.7,21.7,0,0,0,113.53,133.85Z"/><path class="cls-1" d="M95.54,118.43c-.79.29-1.56.5-2.31.74a9.07,9.07,0,0,0-1.94.78c-.1.06-.14.14-.09.12a.42.42,0,0,0,.17-.22.71.71,0,0,0,0-.36c0-.17,0-.14.06-.09a2.57,2.57,0,0,0,.3.2,13,13,0,0,0,1.79.9l-.61-.13a21,21,0,0,1,3.06.14,11.14,11.14,0,0,1,3.14.79,6.13,6.13,0,0,1,2.66,2.12,20.2,20.2,0,0,1,1.43,2.72,21.38,21.38,0,0,1-2.55-1.59,6.13,6.13,0,0,0-2.31-.88,42,42,0,0,0-5.43-.33h-.37l-.23-.12a10.45,10.45,0,0,1-2.27-1.47,5.54,5.54,0,0,1-.56-.6,2.62,2.62,0,0,1-.54-1.09,1.91,1.91,0,0,1,.07-.94,1.77,1.77,0,0,1,.48-.71,2.33,2.33,0,0,1,.92-.48,6.58,6.58,0,0,1,2.67-.08A11.94,11.94,0,0,1,95.54,118.43Z"/><path class="cls-1" d="M95.54,115.86a12.18,12.18,0,0,1-4.55.87,12.67,12.67,0,0,1-4.67-.76c-.21-.09-.41-.18-.63-.3a3.08,3.08,0,0,1-.79-.55,1.36,1.36,0,0,1-.28-.32l-.15-.25a2,2,0,0,1-.14-.42,1.72,1.72,0,0,1,.12-1.07,1.8,1.8,0,0,1,.24-.35,1.55,1.55,0,0,1,.26-.26,2.49,2.49,0,0,1,.4-.24l.28-.11c.18,0,.31-.07.46-.1a8.52,8.52,0,0,1,2.48.1A18.83,18.83,0,0,1,93,113.28a17.9,17.9,0,0,1-4.39,1.18,15.35,15.35,0,0,0-1.91.33l-.08,0h0a.59.59,0,0,0,.16-.1,1.35,1.35,0,0,0,.17-.15,1,1,0,0,0,.15-.25,1.27,1.27,0,0,0,.11-.81,1.21,1.21,0,0,0-.1-.29l-.07-.13-.09-.12c-.07-.06,0,0,.12.06l.37.15c1.14.44,2.53.82,3.87,1.22A40.38,40.38,0,0,1,95.54,115.86Z"/><path class="cls-1" d="M205.94,218.55c-.56,4.84-.92,9.68-1.26,14.53l-1.07,14.55c-.74,9.7-1.55,19.4-3,29.1-.16,1.22-.41,2.43-.61,3.64l-.62,3.56-.54,3.58-.49,3.6c-.66,4.8-1.19,9.62-1.79,14.44-1.13,9.65-2.23,19.32-3.52,29,0-9.75.49-19.48,1.19-29.2.33-4.86.8-9.71,1.31-14.57.26-2.43.59-4.85.94-7.28l.6-3.64c.19-1.18.41-2.36.57-3.56.74-4.76,1.3-9.58,1.87-14.4l1.72-14.48q.87-7.25,1.93-14.48C204,228.11,204.73,223.28,205.94,218.55Z"/><path class="cls-1" d="M311.35,216c.4,5.25,1,10.47,1.6,15.7l1.79,15.67c1.17,10.47,2.36,20.87,3.18,31.45.16,2.71,0,5.39,0,8s-.18,5.27-.31,7.9c-.28,5.26-.55,10.51-.93,15.76-.7,10.51-1.55,21-2.73,31.48-.07-10.54.13-21.07.4-31.58l.42-15.77.22-7.87c.05-2.63.13-5.22,0-7.76-.32-5.19-.84-10.45-1.28-15.68s-.88-10.48-1.22-15.74-.7-10.51-.93-15.77S311.09,221.25,311.35,216Z"/><circle class="cls-3" cx="48.95" cy="53.67" r="8.37"/><circle class="cls-4" cx="33.76" cy="74.05" r="6.4"/><circle class="cls-4" cx="23.42" cy="28.24" r="15.76"/></g></g></g></svg>