<svg xmlns="http://www.w3.org/2000/svg" viewBox="0 0 334.18 305.81"><defs><style>.cls-1,.cls-3{fill:#fff;}.cls-2{fill:#f0a500;}.cls-3{stroke:#fff;stroke-miterlimit:10;}</style></defs><g id="レイヤー_2" data-name="レイヤー 2"><g id="web"><g id="scientist"><path class="cls-1" d="M180.48,113.65c.21,5.28-.22,10.53,0,15.68a42.24,42.24,0,0,0,.83,7.53c.13.61.29,1.19.47,1.77s.4,1.22.6,1.82l1.28,3.72c.8,2.51,1.6,5,2.23,7.64a27.76,27.76,0,0,1,.92,8.15c-.44,5.18-.66,10.42-1.17,15.68a110.82,110.82,0,0,1-1.17-15.77,30.15,30.15,0,0,0-1.33-7.35c-.69-2.47-1.49-4.94-2.33-7.41l-1.21-3.73c-.19-.64-.41-1.21-.59-1.91a15.56,15.56,0,0,1-.48-2.05,36.45,36.45,0,0,1-.38-8.12A105.88,105.88,0,0,1,180.48,113.65Z"/><path class="cls-1" d="M170.24,198.6l5.95,1.29a12.54,12.54,0,0,1,3.13,1.08,9.42,9.42,0,0,1,2.68,2.25,32.53,32.53,0,0,1,3.46,5.16,28.65,28.65,0,0,1,2.42,5.71,39.88,39.88,0,0,1-4.36-4.36c-1.33-1.51-2.59-3.1-3.81-4.57a9.13,9.13,0,0,0-1.84-1.75,19.76,19.76,0,0,0-2.45-1.3A16.9,16.9,0,0,1,170.24,198.6Z"/><path class="cls-1" d="M78,0c3.62,4.9,7.23,9.81,11,14.62s7.45,9.66,11.46,14.11L103.61,32l3.15,3.34c2.07,2.24,4.1,4.52,6.14,6.79Q119,48.93,125,55.87l-1.52-.46a42.23,42.23,0,0,0,5.08-2.06c.83-.42,1.67-.79,2.49-1.24l2.45-1.39c3.26-1.85,6.42-3.93,9.53-6.09,6.2-4.34,12.25-8.94,18.15-13.74s11.73-9.69,17.43-14.74c2.85-2.53,5.69-5.07,8.38-7.74l2-2a3,3,0,0,0,.75-1,1.47,1.47,0,0,0-.32-1.11A44.11,44.11,0,0,0,185.61,0l2.14,1.9A17.26,17.26,0,0,1,189.8,4a2,2,0,0,1,.48,1.54,3.37,3.37,0,0,1-.81,1.34L187.59,9c-2.55,2.87-5.2,5.63-7.93,8.31-5.45,5.36-11.11,10.51-16.92,15.5S150.94,42.59,144.65,47c-3.14,2.21-6.34,4.35-9.7,6.29l-2.53,1.44c-.86.46-1.76.86-2.64,1.29a43.87,43.87,0,0,1-5.53,2.19l-.86.32-.66-.77L110.87,43.89l-6-6.9-3-3.42-3.08-3.39c-2-2.36-3.84-4.81-5.65-7.29s-3.55-5-5.25-7.5C84.53,10.32,81.15,5.24,78,0Z"/><path class="cls-1" d="M136.94,61.7a9.1,9.1,0,0,1,3.11,2.1A12.92,12.92,0,0,1,142.21,67a18,18,0,0,1,1.5,7.45c0,.63,0,1.27-.08,1.9s-.17,1.34-.28,1.87a2.15,2.15,0,0,0,0,1.08,2.93,2.93,0,0,0,.6,1,8.41,8.41,0,0,0,4.2,2.19,2.26,2.26,0,0,0,1.65-.16,2.25,2.25,0,0,1-1.63,1,6.72,6.72,0,0,1-2,.11,7.62,7.62,0,0,1-3.82-1.35,5.09,5.09,0,0,1-1.51-1.83A3.84,3.84,0,0,1,140.5,79a6.84,6.84,0,0,1,0-1.14c.07-.65.13-1.12.15-1.69s0-1.13,0-1.69a27.83,27.83,0,0,0-.71-6.65,14.77,14.77,0,0,0-3.06-6.11Z"/><path class="cls-1" d="M162.55,90.11c.94,1,1.77,2.09,2.7,3a6.6,6.6,0,0,0,2.91,1.83c2.06.49,4.52-.29,6.91-1.15,1.22-.44,2.4-.93,3.6-1.44a34,34,0,0,1,3.84-1.56,6.78,6.78,0,0,1,2.29-.31,8.65,8.65,0,0,1,2.2.37,15.67,15.67,0,0,1,3.73,1.86c-1.37-.14-2.7-.39-4-.4a6.58,6.58,0,0,0-3.42.69c-1.06.52-2.2,1.26-3.42,1.9a30.85,30.85,0,0,1-3.8,1.71,19.32,19.32,0,0,1-4.17,1.07,8.77,8.77,0,0,1-4.6-.54A7.42,7.42,0,0,1,164.08,94,17.71,17.71,0,0,1,162.55,90.11Z"/><path class="cls-1" d="M190.59,7.61A24.09,24.09,0,0,1,194.75,12a57.15,57.15,0,0,1,3.39,5,85,85,0,0,1,5.54,10.62c.78,1.85,1.53,3.7,2.14,5.64.32,1,.58,1.95.83,3,.09.53.24,1,.29,1.58l.07.85c0,.28,0,.51,0,.77,0,2-.23,4,.27,5.61s2,3,3.66,4.13a11.2,11.2,0,0,1-2.79-1.2,6.28,6.28,0,0,1-2.22-2.35,9.73,9.73,0,0,1-.92-3.1c-.16-1-.22-2-.33-3,0-.24-.05-.5-.09-.71l-.13-.62c-.07-.4-.24-.88-.36-1.31-.28-.89-.59-1.79-1-2.69-.68-1.8-1.45-3.6-2.21-5.39s-1.56-3.58-2.38-5.36S196.91,19.8,196.1,18A91,91,0,0,0,190.59,7.61Z"/><path class="cls-1" d="M175.36,103a61.51,61.51,0,0,0-3.69,10.83,36.46,36.46,0,0,0-.88,5.57c-.1.93-.1,1.87-.15,2.8s0,1.87.07,2.8.13,1.86.27,2.78.28,1.84.44,2.75l.26,1.47a13.6,13.6,0,0,1,.17,1.55,22.33,22.33,0,0,1,0,3.06,43.59,43.59,0,0,1-2.73,11.58,88.43,88.43,0,0,1-4.89,10.64q-1.41,2.56-2.93,5c-.51.83-1,1.65-1.57,2.46l-.83,1.22-.45.63a1.89,1.89,0,0,1-.3.32l-.15.11-.08.06-.3.2a15.25,15.25,0,0,0-3.88,3.66,5.1,5.1,0,0,0-.9,4.7,14.67,14.67,0,0,0,2.81,4.72,18.08,18.08,0,0,0,2,2,14.8,14.8,0,0,0,2.32,1.69,16.21,16.21,0,0,1-8.51-7.88,5.84,5.84,0,0,1-.47-3.23,7.94,7.94,0,0,1,1.07-3,16.35,16.35,0,0,1,4.16-4.51c.19-.13.48-.38.29-.21l.35-.56.73-1.21c.48-.82,1-1.64,1.43-2.47q1.41-2.48,2.68-5a90,90,0,0,0,4.6-10.36A42.62,42.62,0,0,0,169,136.42a20.27,20.27,0,0,0,.09-2.69,11.55,11.55,0,0,0-.1-1.33l-.19-1.38a35.62,35.62,0,0,1-.46-5.92,36.5,36.5,0,0,1,1.87-11.63A46.61,46.61,0,0,1,175.36,103Z"/><path class="cls-1" d="M106.2,203.76a21,21,0,0,0-7.5-.19c-2.5.26-5,.71-7.43,1.2s-4.92,1.07-7.26,1.83c-.58.2-1.16.37-1.7.59a7.8,7.8,0,0,0-1.52.72,27.87,27.87,0,0,0-8,7.14c-1.31,1.89-2.19,4.1-1.54,6a5.94,5.94,0,0,0,1.77,2.62A4.31,4.31,0,0,0,76,224.78a2.29,2.29,0,0,0,2.18-1.85,8.48,8.48,0,0,0-.12-3.67,7.74,7.74,0,0,1,.94,3.81,3.37,3.37,0,0,1-.81,2,3.13,3.13,0,0,1-.9.75,4.19,4.19,0,0,1-1.09.4,5.93,5.93,0,0,1-4.25-1,7.74,7.74,0,0,1-2.8-3.36,7,7,0,0,1-.33-4.49,13.46,13.46,0,0,1,1.69-3.91A25.08,25.08,0,0,1,76,207.58a25.7,25.7,0,0,1,3.36-2.22,11.51,11.51,0,0,1,2-.89c.65-.24,1.28-.42,1.92-.59a55.5,55.5,0,0,1,7.67-1.41,51.53,51.53,0,0,1,7.76-.37,29.68,29.68,0,0,1,3.88.41A11.16,11.16,0,0,1,106.2,203.76Z"/><path class="cls-1" d="M136.94,227.29c-2.22.27-4.45.41-6.69.55l-3.35.15a14.15,14.15,0,0,0-3.05.45,58.09,58.09,0,0,0-6.17,2c-2,.75-4.09,1.54-6.11,2.4s-4,1.7-6,2.59l-1.51.68a14.93,14.93,0,0,1-1.68.65,17,17,0,0,1-3.44.8A21.2,21.2,0,0,1,92,237.4a19.56,19.56,0,0,1-3.3-1,14.22,14.22,0,0,1-3-1.67,19.66,19.66,0,0,0,6.41,1.18,21.44,21.44,0,0,0,3.21-.15,21.91,21.91,0,0,0,3.12-.55,22.39,22.39,0,0,0,3-1,12.62,12.62,0,0,0,1.39-.65l1.49-.78c2-1,4-1.94,6.13-2.8a58.69,58.69,0,0,1,13-3.9A14.15,14.15,0,0,1,127,226l3.31.34C132.51,226.64,134.72,226.9,136.94,227.29Z"/><path class="cls-1" d="M93.39,224.42a2.17,2.17,0,0,1,1.74-1A2.5,2.5,0,0,1,97,224.54a4.43,4.43,0,0,1,.78,2.05,4.85,4.85,0,0,1-.35,2.22,5.62,5.62,0,0,1-1.28,1.79A16.4,16.4,0,0,1,94.63,232,12.32,12.32,0,0,1,91,233.83a10.14,10.14,0,0,1-4.17.35,11,11,0,0,1-3.91-1.28,13.65,13.65,0,0,1-3.23-2.34,7.32,7.32,0,0,1-1.2-1.62A3.17,3.17,0,0,1,78,227a3.3,3.3,0,0,0,.87,1.61,7.48,7.48,0,0,0,1.39,1.19,17,17,0,0,0,3.26,1.68,10.17,10.17,0,0,0,6.84.43,11.28,11.28,0,0,0,3.15-1.51A9,9,0,0,0,96,228.14a3.41,3.41,0,0,0,.14-3.08A1.82,1.82,0,0,0,95.06,224,2.11,2.11,0,0,0,93.39,224.42Z"/><path class="cls-1" d="M98.51,208.93a30.19,30.19,0,0,1-3,3.48,8.74,8.74,0,0,1-4.16,2.39c-.18,0-.47.07-.57.11a1.4,1.4,0,0,0-.34.13,2.05,2.05,0,0,0-.61.49,18.56,18.56,0,0,0-1.22,1.73,7.47,7.47,0,0,1-1.75,1.86,5.7,5.7,0,0,1-2.47,1,9.36,9.36,0,0,1-1.29.11c-.39,0-.79,0-1.18-.05a20.1,20.1,0,0,1-2.32-.27,15.32,15.32,0,0,1-4.54-1.42,4.05,4.05,0,0,1-1.94-1.87,2,2,0,0,1,0-1.54A3.31,3.31,0,0,1,74,214,11.41,11.41,0,0,1,78,211.8a15.53,15.53,0,0,0-3.33,2.85c-.42.55-.57,1.12-.32,1.46a3.07,3.07,0,0,0,1.42,1,16.81,16.81,0,0,0,4.13.95c.72.08,1.44.16,2.16.19.36,0,.72,0,1.07,0a7.43,7.43,0,0,0,1-.1,4.44,4.44,0,0,0,3-2,18.17,18.17,0,0,1,1.51-1.85,3.48,3.48,0,0,1,.54-.45,2.51,2.51,0,0,1,.67-.35,3.08,3.08,0,0,1,.74-.18c.27,0,.36,0,.55-.06a8.23,8.23,0,0,0,3.8-1.61C96.15,210.83,97.3,209.83,98.51,208.93Z"/><path class="cls-1" d="M229.15,54a185,185,0,0,1,28.11,1.65c9.31,1.31,18.64,3.12,27.53,6.77a101.2,101.2,0,0,1,24.37,14.5,51.43,51.43,0,0,1,9.7,10.44,28.9,28.9,0,0,1,5.07,13.14,31.65,31.65,0,0,0-6.26-12.27,55.64,55.64,0,0,0-10-9.48,98.34,98.34,0,0,0-11.63-7.48,126.76,126.76,0,0,0-12.45-6.09,89.65,89.65,0,0,0-13.11-4.27c-4.48-1.17-9-2.08-13.61-3C247.73,56.26,238.47,55,229.15,54Z"/><path class="cls-1" d="M277.82,126.27c2.93,3.45,5.47,7.17,8,10.8,1.3,1.81,2.55,3.64,3.89,5.4s2.64,3.53,4.07,5.19,2.86,3.33,4.37,4.88,3.18,3,4.84,4.43c3.37,2.84,6.94,5.48,10.65,8.05a50.08,50.08,0,0,1-12.07-6.18,52.23,52.23,0,0,1-5.39-4.26,54.21,54.21,0,0,1-4.71-5,77.59,77.59,0,0,1-7.62-11.26C281.66,134.4,279.7,130.38,277.82,126.27Z"/><path class="cls-1" d="M311.12,172.77c-2.94,3.5-5.73,7.11-8.57,10.69l-8.47,10.75-4.22,5.39q-2.12,2.68-4.19,5.38l-1,1.35c-.3.44-.59.86-1,1.39a10,10,0,0,1-1.21,1.46,11.14,11.14,0,0,1-1.39,1.27,19.4,19.4,0,0,1-6.55,3.35c-4.64,1.43-9.38,1.57-13.95,1.67s-9,0-12.35,2.61a54.07,54.07,0,0,0-5,4.43c-1.66,1.61-3.42,3.14-5.21,4.58-3.61,2.87-7.32,5.55-11.14,8.09l.06-.05a3.12,3.12,0,0,0-1.07,1.77,1.09,1.09,0,0,0,.26.86,1.9,1.9,0,0,0,.89.53,5.26,5.26,0,0,0,2.34.05,10.79,10.79,0,0,0,2.33-.71,11.43,11.43,0,0,1-2.26,1,5.2,5.2,0,0,1-2.55.22,2.47,2.47,0,0,1-1.25-.6,1.92,1.92,0,0,1-.59-1.37,3.84,3.84,0,0,1,1.16-2.49v0l.05,0c3.55-2.85,7.08-5.75,10.44-8.79,1.69-1.52,3.31-3,4.85-4.7a43.71,43.71,0,0,1,5.08-4.87,14.87,14.87,0,0,1,3.23-1.91,17.29,17.29,0,0,1,3.58-1,49,49,0,0,1,7-.49A53.48,53.48,0,0,0,273.65,211a16.66,16.66,0,0,0,5.61-2.78,9.13,9.13,0,0,0,1.13-1,8.4,8.4,0,0,0,1-1.15c.31-.36.68-.87,1-1.36l1.08-1.37c2.88-3.58,5.84-7.05,8.85-10.5s6.05-6.86,9.15-10.23S307.74,175.86,311.12,172.77Z"/><path class="cls-1" d="M306,224.42a40.8,40.8,0,0,1-7.11,6.27c-2.57,1.84-5.2,3.58-7.84,5.27l-3.91,2.55c-.65.43-1.27.86-1.88,1.3-.28.23-.59.45-.85.67l-.83.78a30.81,30.81,0,0,1-4.08,2.82c-1.37.82-2.77,1.59-4.19,2.33-5.72,2.81-11.75,5.17-18.23,5.94a18.17,18.17,0,0,1-9.72-1.18c-.78-.37-1.39-.78-2.1-1.16l-2-1.19-2-1.22-.5-.31-.13-.08-.06-.05c-.14,0,.13-.48.08-.28l.06,0,0,0,.26.14,1,.61-1.11-.4-.28-.09h0c-.08.19.23-.25.09-.26l.06,0,.14,0,.54.22,2.19.87c1.45.56,2.94,1.25,4.34,1.74a18,18,0,0,0,8.82.22,50.76,50.76,0,0,0,8.77-2.56,78.06,78.06,0,0,0,8.43-3.74c1.38-.68,2.74-1.41,4.06-2.17a33.73,33.73,0,0,0,3.72-2.44l.92-.79c.35-.27.69-.5,1-.74.69-.45,1.37-.89,2.06-1.29,1.36-.83,2.74-1.59,4.12-2.34,2.75-1.52,5.52-3,8.24-4.51A59.56,59.56,0,0,0,306,224.42Z"/><path class="cls-1" d="M236.84,247.67a7.12,7.12,0,0,1-4,1.27,7.51,7.51,0,0,1-4.28-1.2,4.83,4.83,0,0,1-1.66-1.78,4.5,4.5,0,0,1-.49-2.5,7.66,7.66,0,0,1,2-4.17,19.5,19.5,0,0,1,3.27-2.82c1.14-.79,2.26-1.6,3.44-2.33a36.4,36.4,0,0,1,3.61-2.07,15.36,15.36,0,0,0,1.58-1.2c.54-.44,1.09-.87,1.65-1.28-.41.56-.83,1.12-1.25,1.66a13,13,0,0,1-1.42,1.63c-1.16.84-2.17,1.66-3.26,2.53L232.82,238a19.46,19.46,0,0,0-2.91,2.63,6.1,6.1,0,0,0-1.67,3.06,3,3,0,0,0,1.21,2.83,7.2,7.2,0,0,0,3.42,1.46A8.19,8.19,0,0,0,236.84,247.67Z"/><path class="cls-1" d="M121.35,268.43A48.59,48.59,0,0,0,129,277l1.07.95.27.24.14.12.07.06v0s.18.06.35.1a18.59,18.59,0,0,0,2.67.44c1.87.2,3.79.29,5.7.39,7.65.36,15.34.42,23,.42s15.38-.12,23-.69c1.9-.17,3.8-.33,5.65-.66.46-.08.92-.18,1.36-.29.23,0,.44-.12.66-.18l.56-.18a.21.21,0,0,0,.15-.14.34.34,0,0,0,0-.12V277a4.15,4.15,0,0,1,.47-1.63,7,7,0,0,1,2.14-2.26c.8-.59,1.63-1.09,2.45-1.6a13.64,13.64,0,0,0,4.3-3.73,13,13,0,0,1-3.92,4.28c-.76.6-1.53,1.18-2.23,1.8a6,6,0,0,0-1.65,2,2.72,2.72,0,0,0-.23,1.15l0,.33a2,2,0,0,1-.08.59,1.7,1.7,0,0,1-.74.95,3.17,3.17,0,0,1-.43.21l-.36.15-.71.26c-.48.16-1,.3-1.44.43a50.83,50.83,0,0,1-5.78,1.13c-3.86.56-7.73.91-11.6,1.13s-7.74.34-11.62.39c-7.74.07-15.48-.14-23.23-.82q-2.9-.27-5.82-.73a21.72,21.72,0,0,1-3-.69,3.17,3.17,0,0,1-.95-.49l-.16-.13-.06-.06-.12-.14-.25-.27-1-1.08A34,34,0,0,1,121.35,268.43Z"/><path class="cls-1" d="M202.62,267.41a35.41,35.41,0,0,1,4.29-7.7,73,73,0,0,1,5.5-6.9,53.55,53.55,0,0,1,6.42-6.08,28.39,28.39,0,0,1,3.66-2.54,14.38,14.38,0,0,1,4.1-1.69,34.23,34.23,0,0,0-6.73,5.4c-2.05,2-4.05,4.1-6,6.26s-3.85,4.31-5.75,6.5S204.36,265.05,202.62,267.41Z"/><path class="cls-1" d="M121.35,268.43a6.42,6.42,0,0,1,2.26-1.25c.81-.3,1.65-.53,2.49-.75,1.68-.43,3.38-.77,5.08-1.07,3.42-.59,6.85-1.05,10.29-1.44,6.89-.74,13.8-1.23,20.72-1.57S176,261.92,183,262c3.47.08,6.94.23,10.41.56a45,45,0,0,1,5.22.76,11.28,11.28,0,0,1,2.64.86,6.21,6.21,0,0,1,1.23.81,2.65,2.65,0,0,1,.93,1.52,2.18,2.18,0,0,1-.66,1.79,5.55,5.55,0,0,1-1.22.9,12.85,12.85,0,0,1-2.56,1,22.54,22.54,0,0,1-5.28.84c-3.47,0-6.92.19-10.38.28-6.91.2-13.83.38-20.75.39s-13.85,0-20.77-.31c-3.46-.16-6.91-.37-10.36-.73-1.72-.18-3.44-.4-5.15-.71a15.09,15.09,0,0,1-4.92-1.58,15.2,15.2,0,0,0,5,1.37c1.7.25,3.42.41,5.14.54,3.45.25,6.9.35,10.35.4,6.91.12,13.82.05,20.73-.11s13.82-.37,20.73-.61c3.45-.12,6.92-.28,10.36-.35a20.58,20.58,0,0,0,4.93-.82,10.9,10.9,0,0,0,2.25-.9c.69-.35,1.23-1,1.12-1.18s-.7-.91-1.37-1.23a10.52,10.52,0,0,0-2.28-.75,43.53,43.53,0,0,0-5-.76c-3.41-.35-6.86-.52-10.3-.62-6.9-.2-13.8-.07-20.71.1s-13.8.55-20.68,1.14c-3.45.28-6.88.63-10.3,1.11-1.71.24-3.42.52-5.1.89-.84.18-1.68.38-2.5.64A6.21,6.21,0,0,0,121.35,268.43Z"/><path class="cls-1" d="M195.85,97.86c.13,3,.58,5.86,1,8.77s.91,5.81,1.41,8.71c1,5.81,2,11.59,3.13,17.37s2.19,11.56,3.63,17.2,2.59,11.54,3.8,17.32,2.26,11.58,3.31,17.38l1.48,8.73c.48,2.92.93,5.82,1.24,8.83l.05.58,0,.68a9.06,9.06,0,0,1-.06,1.13l-.11,2.17-.15,4.4q-.14,4.4-.13,8.81t.15,8.81c.07,1.47.17,2.93.33,4.39.08.72.19,1.45.34,2.17a4.92,4.92,0,0,0,.77,2,5.2,5.2,0,0,1-1-2,20,20,0,0,1-.56-2.15c-.3-1.45-.52-2.92-.72-4.39-.37-2.94-.6-5.89-.79-8.84s-.29-5.9-.37-8.86c0-1.47,0-3,0-4.44l0-2.24a7.77,7.77,0,0,0,0-1.07l0-.43-.07-.52c-.89-5.7-2.05-11.53-3.18-17.28s-2.27-11.55-3.46-17.32-2.31-11.55-3.61-17.24S200,139,199.09,133.1s-1.64-11.69-2.28-17.56c-.29-2.94-.59-5.87-.78-8.82A68.94,68.94,0,0,1,195.85,97.86Z"/><path class="cls-1" d="M224,247.67c1.76,4.58,3.73,9,5.25,13.7a46.66,46.66,0,0,1,1.74,7.27,36.79,36.79,0,0,1,.35,7.57,42.29,42.29,0,0,1-1.31,7.43,36.71,36.71,0,0,1-2.62,7.05,24.14,24.14,0,0,0-1.45,3.19,23,23,0,0,0-.84,3.41c-.46,2.35-.73,4.78-1.12,7.2a54.72,54.72,0,0,1-.35-7.37,24.57,24.57,0,0,1,.42-3.77,21.53,21.53,0,0,1,1.2-3.61,43.67,43.67,0,0,0,2-6.78,43.17,43.17,0,0,0,1.07-6.95,35.74,35.74,0,0,0-.16-7,59.5,59.5,0,0,0-1.19-7C226,257.3,224.58,252.56,224,247.67Z"/><path class="cls-1" d="M239.4,276.37a12.62,12.62,0,0,0,1.49.41c.51.08,1,.19,1.51.23l1.53.15,1.54,0c1,.06,2.05,0,3.07,0s2-.08,3.06-.15a89.41,89.41,0,0,0,12.12-1.65,60.26,60.26,0,0,0,11.54-3.54c.89-.45,1.84-.78,2.68-1.29l2.66-1.48c.93-.52,1.86-1.06,2.82-1.49s1.89-.94,2.86-1.34A168.14,168.14,0,0,1,310,258.5c4-1,8.05-2,12.1-2.82s8-1.74,12.12-2.56c-3.87,1.45-7.81,2.86-11.76,4s-7.89,2.41-11.81,3.64-7.84,2.5-11.7,3.89-7.73,2.74-11.43,4.4c-1,.37-1.84.83-2.76,1.25s-1.8.9-2.67,1.38l-2.77,1.49a27.39,27.39,0,0,1-2.92,1.34,54.91,54.91,0,0,1-12.23,3.22,71.75,71.75,0,0,1-12.5.82,54.11,54.11,0,0,1-6.23-.5A18.31,18.31,0,0,1,239.4,276.37Z"/><path class="cls-1" d="M198.41,209.21a20.57,20.57,0,0,1-4.47,8.24,14.59,14.59,0,0,1-3.83,2.91,19.24,19.24,0,0,1-4.53,1.66,28.28,28.28,0,0,1-4.75.66c-.79.06-1.54.09-2.28.19a7.79,7.79,0,0,0-1,.17,2.35,2.35,0,0,0-.4.13l-.1.05s0,0,.05,0a.36.36,0,0,0,.07-.18s0-.07,0,0a3.25,3.25,0,0,0,.14.33c.14.31.33.69.49,1.11a5.45,5.45,0,0,1,.36,2.83,6.66,6.66,0,0,1-1,2.58,12.86,12.86,0,0,1-1.67,2,31,31,0,0,1-3.8,3c-1.31.9-2.65,1.76-4,2.56-2.72,1.63-5.52,3.08-8.37,4.43s-5.77,2.54-8.72,3.65l-.55.21-.28.1a3.05,3.05,0,0,1-.44.13,3.52,3.52,0,0,1-3.59-1.28,3.8,3.8,0,0,1-.49-.88l-.21-.6-1.5-4.42-3-8.86c-1-2.92-2.06-5.82-3.22-8.66a44.33,44.33,0,0,0-4.1-8.07,40.65,40.65,0,0,0-5.89-6.87l-.42-.42-.21-.2-.12-.12a2.2,2.2,0,0,1-.2-.23,2.12,2.12,0,0,1-.15-2.34,2.05,2.05,0,0,1,.35-.47l.24-.23.48-.42c.33-.28.67-.53,1-.77a19.1,19.1,0,0,1,4.4-2.21,29.78,29.78,0,0,1,4.65-1.22c1.53-.3,3.07-.58,4.61-.84s3.08-.5,4.59-.78a11.86,11.86,0,0,0,4.22-1.44,9.7,9.7,0,0,0,1.69-1.48l1.64-1.67,1.69-1.63.85-.8.43-.39.22-.2.1-.1.06,0h0l-.73.81-.77.88-1.51,1.78-1.5,1.79a10.21,10.21,0,0,1-1.69,1.73,12.16,12.16,0,0,1-4.44,1.89c-1.53.4-3,.73-4.56,1.09s-3,.7-4.53,1.08a28.87,28.87,0,0,0-4.31,1.37,18.71,18.71,0,0,0-3.85,2.14c-.28.22-.56.44-.82.68s-.26.24-.38.36l-.18.18h0a.14.14,0,0,0,0-.15l.72.66c1.16,1,2.34,2.14,3.43,3.32a35.57,35.57,0,0,1,3,3.78,46,46,0,0,1,4.55,8.45c1.25,2.9,2.34,5.84,3.37,8.81l3,8.85,1.47,4.43.17.5a.47.47,0,0,0,.08.14.53.53,0,0,0,.25.19.54.54,0,0,0,.31,0l.12,0,.27-.1.54-.19c2.89-1.06,5.74-2.24,8.55-3.49s5.57-2.6,8.23-4.11c1.34-.75,2.64-1.56,3.92-2.38a28,28,0,0,0,3.61-2.64,6.35,6.35,0,0,0,2.19-3.21,3.35,3.35,0,0,0-.17-1.75c-.11-.32-.25-.64-.41-1a3.1,3.1,0,0,1-.23-.77,2,2,0,0,1,0-.61,1.77,1.77,0,0,1,.31-.7,1.71,1.71,0,0,1,.48-.43,2.76,2.76,0,0,1,.43-.2,3.59,3.59,0,0,1,.71-.19,9.93,9.93,0,0,1,1.27-.15c.81-.06,1.62,0,2.39-.07a28.43,28.43,0,0,0,4.52-.39,17.36,17.36,0,0,0,4.31-1.26,14.36,14.36,0,0,0,3.76-2.46A21.38,21.38,0,0,0,198.41,209.21Z"/><path class="cls-1" d="M88.75,3.05c2,2.11,3.92,4.28,5.83,6.44s3.81,4.31,5.73,6.44l5.76,6.43c1.93,2.14,3.87,4.28,5.74,6.52A59.86,59.86,0,0,1,105,23.46a83.66,83.66,0,0,1-6.15-6.2,82.76,82.76,0,0,1-5.45-6.8A59.58,59.58,0,0,1,88.75,3.05Z"/><path class="cls-1" d="M103.64,0c1.59,1.7,3.06,3.44,4.54,5.16s2.95,3.46,4.45,5.15,3,3.41,4.47,5.13,3,3.41,4.47,5.22A36.29,36.29,0,0,1,116,16.54a50.36,50.36,0,0,1-4.88-4.92,53.33,53.33,0,0,1-4.18-5.52A37,37,0,0,1,103.64,0Z"/><path class="cls-1" d="M120.07,2a18.1,18.1,0,0,1,3.11,2,31.43,31.43,0,0,1,2.72,2.43,30.07,30.07,0,0,1,2.41,2.74,17.94,17.94,0,0,1,2,3.13,18,18,0,0,1-3.12-2,28.46,28.46,0,0,1-2.71-2.43,31.34,31.34,0,0,1-2.41-2.73A18,18,0,0,1,120.07,2Z"/><path class="cls-1" d="M221.47,95.57A105.77,105.77,0,0,1,226,108.89a47.52,47.52,0,0,1,1.31,7c.24,2.22.72,4.51,1.18,6.77,1,4.54,2,9.08,3.1,13.6s2.18,9.05,3.49,13.46c2.78,8.89,5.15,18,7.51,27L246,190.25l1.73,6.78c.6,2.25,1.13,4.53,1.91,6.73a63.3,63.3,0,0,1-2.71-6.48c-.81-2.19-1.57-4.4-2.34-6.61q-2.23-6.64-4.31-13.33c-1.42-4.45-2.71-8.93-4.08-13.39l-2-6.7-2.08-6.69a265.39,265.39,0,0,1-6-27.47,62.63,62.63,0,0,1-.84-7.07,50,50,0,0,0-.79-6.83C223.74,104.63,222.61,100.1,221.47,95.57Z"/><path class="cls-1" d="M249.65,80.07a25.55,25.55,0,0,0-2,7,39,39,0,0,0,.32,7.18c.34,5,.14,9.89.2,14.76,0,2.44,0,4.89.19,7.2a35.44,35.44,0,0,0,1.38,6.93c1.38,4.58,3.38,9.11,5,13.79a74.78,74.78,0,0,1-7.19-13,30.88,30.88,0,0,1-2-7.37,68.94,68.94,0,0,1-.37-7.52c0-2.48.08-4.94.18-7.4s.21-4.89.28-7.3a31.2,31.2,0,0,1,.58-7.51A19.54,19.54,0,0,1,249.65,80.07Z"/><path class="cls-1" d="M107.42,34c3.52-2.57,7.1-5,10.67-7.39L123.42,23c.88-.62,1.78-1.2,2.66-1.8l2.63-1.85c3.5-2.46,7-4.94,10.32-7.58a64.58,64.58,0,0,0,9.37-8.76,34.28,34.28,0,0,1-7.82,10.51,82.9,82.9,0,0,1-10.15,8.29,112.35,112.35,0,0,1-11.14,6.8A90,90,0,0,1,107.42,34Z"/><path class="cls-1" d="M75.18,227.29c-.26,1.28-.52,2.56-.79,3.83a32.62,32.62,0,0,1-1,3.86,6.66,6.66,0,0,1-1.08,1.88A18.59,18.59,0,0,1,71,238.38c-1,1-2,1.76-3,2.61a36.74,36.74,0,0,0-2.69,2.57,7.07,7.07,0,0,0-1.68,2.7,1.81,1.81,0,0,0,0,1,2.63,2.63,0,0,0,.73,1,6.63,6.63,0,0,0,1.33.86,5.38,5.38,0,0,0,1.43.49,8.43,8.43,0,0,0,6.24-1.47c1.9-1.2,3.42-3.15,3.47-5.19,0-.26,0-.54,0-.82a5.23,5.23,0,0,0-.15-.73,2.44,2.44,0,0,0-.73-1.14,6,6,0,0,0-.71-.53,3.54,3.54,0,0,1-1-.9,2.23,2.23,0,0,1-.35-1.44,3.89,3.89,0,0,1,.27-1.14,27.83,27.83,0,0,1,1.9-3.52l1-1.67.54-.82.26-.41.13-.21a.53.53,0,0,0,.06-.1s-.06,0-.08.07,0-.09.1-.07a.31.31,0,0,1,0,.13l-.08.23-.16.46-.33.92-.67,1.83a33.25,33.25,0,0,0-1.24,3.58,2.69,2.69,0,0,0-.08.76c0,.21,0,.32.15.39a15.27,15.27,0,0,0,1.45.87,4.29,4.29,0,0,1,1.56,1.93,7.1,7.1,0,0,1,.35,1.14c0,.37.13.73.15,1.12A7.33,7.33,0,0,1,78,247.29a11.64,11.64,0,0,1-3,3.19,11.19,11.19,0,0,1-8.47,2.07,8.86,8.86,0,0,1-2.21-.81,9.68,9.68,0,0,1-1.89-1.3,5.34,5.34,0,0,1-1.5-2.17,4.41,4.41,0,0,1,0-2.78,9.49,9.49,0,0,1,2.52-3.74,24.89,24.89,0,0,1,3.13-2.58c1.06-.78,2.16-1.52,3.11-2.24.49-.39,1-.79,1.4-1.2a5.45,5.45,0,0,0,1-1.36c.58-1.05,1-2.31,1.53-3.5S74.62,228.48,75.18,227.29Z"/><path class="cls-1" d="M55,281.36c-2.31.11-4.6.39-6.89.67s-4.58.58-6.87.9c-4.56.67-9.11,1.43-13.63,2.31s-9,1.83-13.43,3.07a62.65,62.65,0,0,0-6.46,2.14,23.5,23.5,0,0,0-3,1.42,6.25,6.25,0,0,0-2.17,1.84.84.84,0,0,0-.14.7,2.53,2.53,0,0,0,.67.81,11.08,11.08,0,0,0,2.71,1.49,44.11,44.11,0,0,0,6.4,2A123.94,123.94,0,0,0,25.67,301a252,252,0,0,0,27.48,1.78c9.18.15,18.39-.09,27.54-.82,4.58-.35,9.14-.84,13.66-1.54a83.89,83.89,0,0,0,13.28-3,21.3,21.3,0,0,0,5.89-2.84,4.89,4.89,0,0,0,1.75-2.16,2.29,2.29,0,0,0-.45-2.31,7.71,7.71,0,0,0-2.4-1.9,21.31,21.31,0,0,0-3-1.36,53,53,0,0,0-6.55-1.9,184,184,0,0,0-27.38-3.59q6.93,0,13.87.49a134.4,134.4,0,0,1,13.81,1.66,52.73,52.73,0,0,1,6.82,1.71,23.82,23.82,0,0,1,3.33,1.37,9.31,9.31,0,0,1,3.06,2.29,7.93,7.93,0,0,1,.61.87,7.31,7.31,0,0,1,.39,1.05,4.35,4.35,0,0,1-.09,2.24,7,7,0,0,1-2.4,3.24,23.45,23.45,0,0,1-6.44,3.35A80,80,0,0,1,94.78,303c-4.6.78-9.22,1.35-13.85,1.77-9.26.82-18.55,1.09-27.83,1a246.39,246.39,0,0,1-27.79-2,128.25,128.25,0,0,1-13.77-2.58A44.29,44.29,0,0,1,4.77,299a13.51,13.51,0,0,1-3.28-1.95,4.6,4.6,0,0,1-1.37-1.94,3.22,3.22,0,0,1,.41-2.61,8.18,8.18,0,0,1,3.07-2.59,24.73,24.73,0,0,1,3.3-1.48,61.37,61.37,0,0,1,6.75-2c4.53-1.1,9.1-1.92,13.68-2.61s9.19-1.21,13.79-1.65S50.34,281.33,55,281.36Z"/><path class="cls-1" d="M108.62,203.9a10.87,10.87,0,0,1,1.82,1.4,6.35,6.35,0,0,0,1.56,1.22c.87.41,2.13-.13,3.4-.71s2.55-1.23,3.84-1.95a3.81,3.81,0,0,1,1.27-.46,6.26,6.26,0,0,1,1.24,0,17.14,17.14,0,0,1,2.24.47c-.74.23-1.49.35-2.2.51a5.16,5.16,0,0,0-1,.27,2.63,2.63,0,0,0-.72.49,17.92,17.92,0,0,1-3.86,2.45,8.79,8.79,0,0,1-2.32.77,3.6,3.6,0,0,1-2.74-.55,5.55,5.55,0,0,1-1.51-1.94Z"/><circle class="cls-2" cx="41.09" cy="265.38" r="6.1"/><path class="cls-1" d="M41.09,259.78a5.6,5.6,0,1,1-5.6,5.6,5.6,5.6,0,0,1,5.6-5.6m0-1a6.6,6.6,0,1,0,6.6,6.6,6.59,6.59,0,0,0-6.6-6.6Z"/><circle class="cls-3" cx="20.27" cy="249.64" r="8.64"/><path class="cls-2" d="M45.66,226.79A15.76,15.76,0,1,1,61.42,211,15.78,15.78,0,0,1,45.66,226.79Z"/><path class="cls-1" d="M45.66,195.78A15.26,15.26,0,1,1,30.41,211a15.27,15.27,0,0,1,15.25-15.25m0-1A16.26,16.26,0,1,0,61.92,211a16.25,16.25,0,0,0-16.26-16.25Z"/><line x1="69.14" y1="248.08" x2="69.14" y2="294.07"/><path class="cls-1" d="M69.14,248.08a112.28,112.28,0,0,1,1.17,11.5c.14,1.91.17,3.83.25,5.75l.08,5.74c0,3.84-.11,7.67-.33,11.5a109.54,109.54,0,0,1-1.17,11.5A112.28,112.28,0,0,1,68,282.57c-.22-3.83-.34-7.66-.33-11.5l.09-5.74c.08-1.92.11-3.84.25-5.75A112.25,112.25,0,0,1,69.14,248.08Z"/></g></g></g></svg>