<svg id="レイヤー_1" data-name="レイヤー 1" xmlns="http://www.w3.org/2000/svg" viewBox="0 0 164 43.49"><defs><style>.cls-1{isolation:isolate;}.cls-2{fill:#4a4a4a;}.cls-3{fill:#fff;}.cls-4{fill:#2e2d53;}</style></defs><g id="Group_60" data-name="Group 60"><g id="OFF_LABEL" data-name="OFF LABEL" class="cls-1"><g class="cls-1"><path class="cls-2" d="M74.51,25.66a6.61,6.61,0,0,1-2.41,2.59,6.85,6.85,0,0,1-7,0,6.61,6.61,0,0,1-2.41-2.59A7.67,7.67,0,0,1,61.86,22a7.67,7.67,0,0,1,.87-3.66,6.61,6.61,0,0,1,2.41-2.59,6.85,6.85,0,0,1,7,0,6.61,6.61,0,0,1,2.41,2.59A7.67,7.67,0,0,1,75.38,22,7.67,7.67,0,0,1,74.51,25.66Zm-1.79-6.37a4.68,4.68,0,0,0-1.67-1.9,4.37,4.37,0,0,0-2.43-.69,4.45,4.45,0,0,0-2.43.68,4.59,4.59,0,0,0-1.67,1.89,6.47,6.47,0,0,0,0,5.44,4.68,4.68,0,0,0,1.67,1.9,4.62,4.62,0,0,0,4.86,0,4.68,4.68,0,0,0,1.67-1.9,6.42,6.42,0,0,0,0-5.42Z"/><path class="cls-2" d="M79.86,16.84V21h4.92a1,1,0,0,1,.69.26.9.9,0,0,1,.27.68.83.83,0,0,1-.27.62,1,1,0,0,1-.69.26H79.86V28a.92.92,0,0,1-.29.68,1,1,0,0,1-1.39,0A.91.91,0,0,1,77.9,28V16a1,1,0,0,1,1-1h6.82a1,1,0,0,1,.69.26.9.9,0,0,1,.27.68.84.84,0,0,1-.28.63.94.94,0,0,1-.68.27Z"/><path class="cls-2" d="M91.14,16.84V21h4.92a1,1,0,0,1,.69.26.9.9,0,0,1,.27.68.83.83,0,0,1-.27.62,1,1,0,0,1-.69.26H91.14V28a.92.92,0,0,1-.29.68,1,1,0,0,1-1.39,0,.91.91,0,0,1-.28-.68V16a1,1,0,0,1,1-1H97a1,1,0,0,1,.69.26.9.9,0,0,1,.27.68.84.84,0,0,1-.28.63.94.94,0,0,1-.68.27Z"/><path class="cls-2" d="M114.41,27.4a.9.9,0,0,1,.27.68.87.87,0,0,1-.27.66,1,1,0,0,1-.69.26H107a.9.9,0,0,1-.69-.28A.94.94,0,0,1,106,28V16a.91.91,0,0,1,.28-.68A1,1,0,0,1,107,15a.94.94,0,0,1,.69.28A.92.92,0,0,1,108,16V27.14h5.74A1,1,0,0,1,114.41,27.4Z"/><path class="cls-2" d="M127.82,28.14a.87.87,0,0,1-.27.66.89.89,0,0,1-.63.26.85.85,0,0,1-.51-.17,1.18,1.18,0,0,1-.37-.47l-1.24-2.94h-6.18l-1.22,3a.93.93,0,0,1-.33.46.84.84,0,0,1-.51.16.86.86,0,0,1-.64-.22.81.81,0,0,1-.22-.6,2,2,0,0,1,0-.32l5.1-12.36a1.07,1.07,0,0,1,.39-.49.81.81,0,0,1,.57-.13.93.93,0,0,1,.54.16.89.89,0,0,1,.34.46l5.08,12.2A1.21,1.21,0,0,1,127.82,28.14Zm-8.44-4.48H124l-2.34-5.6Z"/><path class="cls-2" d="M139.67,22.61a3.5,3.5,0,0,1,.71,2.27,3.67,3.67,0,0,1-1.29,3.17,5.19,5.19,0,0,1-3.15.95H130.8a1,1,0,0,1-1-1V16a1,1,0,0,1,1-1h5.14a3.88,3.88,0,0,1,2.77.9,3.43,3.43,0,0,1,.95,2.6,3.17,3.17,0,0,1-.46,1.71,3,3,0,0,1-1.34,1.15A3.92,3.92,0,0,1,139.67,22.61Zm-2.58-5.24a2,2,0,0,0-1.43-.49h-3.78v3.9h3.82a2,2,0,0,0,1.36-.53,1.89,1.89,0,0,0,.54-1.45A1.89,1.89,0,0,0,137.09,17.37Zm.59,9.22a2.14,2.14,0,0,0,.66-1.71q0-2.22-2.52-2.22h-3.94v4.5h4A2.61,2.61,0,0,0,137.68,26.59Z"/><path class="cls-2" d="M151.51,27.44a.93.93,0,0,1,.27.66.85.85,0,0,1-.27.65,1,1,0,0,1-.69.25h-7a1,1,0,0,1-1-1V16a1,1,0,0,1,1-1h7a1,1,0,0,1,.69.26.9.9,0,0,1,.27.68.85.85,0,0,1-.27.65,1,1,0,0,1-.69.25h-5.94v4.08h5a1,1,0,0,1,.69.26.87.87,0,0,1,.27.66.84.84,0,0,1-.27.66,1,1,0,0,1-.69.24h-5v4.42h5.94A.9.9,0,0,1,151.51,27.44Z"/><path class="cls-2" d="M162.71,27.4a.9.9,0,0,1,.27.68.87.87,0,0,1-.27.66A1,1,0,0,1,162,29h-6.76a.9.9,0,0,1-.69-.28.94.94,0,0,1-.27-.68V16a.91.91,0,0,1,.28-.68,1,1,0,0,1,.72-.28.94.94,0,0,1,.69.28.92.92,0,0,1,.29.68V27.14H162A1,1,0,0,1,162.71,27.4Z"/></g></g><g id="horizontal"><rect id="Rectangle_11" data-name="Rectangle 11" class="cls-3" x="1" y="1" width="42.96" height="41.49"/><path class="cls-4" d="M45,43.49H0V0H45Zm-43-2H43V2H2Z"/><path id="Path_2" data-name="Path 2" class="cls-4" d="M44,28.2V42.62H24.9c4.38,0,7.94-5.28,7.94-11.8h0C39,30.82,44,29.65,44,28.2"/></g></g></svg>