<svg id="レイヤー_1" data-name="レイヤー 1" xmlns="http://www.w3.org/2000/svg" viewBox="0 0 560 560"><defs><style>.cls-1{fill:#fff;stroke:#2e2d53;stroke-linecap:square;stroke-miterlimit:10;stroke-width:2px;}.cls-2{fill:#2e2d53;}.cls-3{isolation:isolate;}</style></defs><g id="Layer_1" data-name="Layer 1"><rect class="cls-1" x="79.31" y="76.11" width="401.38" height="407.79"/><path class="cls-2" d="M480.69,343.48V485.17l-178.27.12c41,0,74.13-51.87,74.13-116v-.24c57.56,0,104.14-11.51,104.14-25.73"/></g><g id="logo_jp" data-name="logo jp"><g class="cls-3"><g class="cls-3"><path class="cls-2" d="M212.4,334.84a1.75,1.75,0,0,1,.53,1.25,1.68,1.68,0,0,1-.53,1.29,1.78,1.78,0,0,1-1.25.49H178.49a1.68,1.68,0,0,1-1.29-.53,1.78,1.78,0,0,1-.49-1.25V277.35a1.75,1.75,0,0,1,.53-1.25,1.84,1.84,0,0,1,1.34-.53,1.82,1.82,0,0,1,1.33.53,1.72,1.72,0,0,1,.54,1.25v57h30.7A1.73,1.73,0,0,1,212.4,334.84Z"/><path class="cls-2" d="M263.66,336.18a1.53,1.53,0,0,1-.53,1.24,2.18,2.18,0,0,1-2.45.14,1.56,1.56,0,0,1-.67-.85l-7.47-18.33.09.18H222.81l-7.21,18.15a1.6,1.6,0,0,1-1.6,1.16,1.84,1.84,0,0,1-1.29-.45,1.71,1.71,0,0,1-.58-1.06,1.6,1.6,0,0,1,.09-.89l23.94-58.92a1.73,1.73,0,0,1,.67-.94,2.2,2.2,0,0,1,1-.22,1.74,1.74,0,0,1,1.78,1.16l23.94,58.92A2.27,2.27,0,0,1,263.66,336.18ZM224.24,315h27l-13.62-33.56Z"/><path class="cls-2" d="M311.5,310.46a16,16,0,0,1,3.42,10.59q0,8.1-5.11,12.46t-13,4.36H272.21a1.83,1.83,0,0,1-1.79-1.78V277.35a1.83,1.83,0,0,1,1.79-1.78h23.94q7.11,0,11.39,4.09t4.27,11a16.9,16.9,0,0,1-2.49,9,12.78,12.78,0,0,1-6.94,5.57A15.12,15.12,0,0,1,311.5,310.46Zm-6.68-28.21q-3.24-3.12-9.12-3.12H274.16v25H295.7a12.23,12.23,0,0,0,8.95-3.61q3.42-3.51,3.42-9.92A11,11,0,0,0,304.82,282.25ZM307.09,331q4.1-3.33,4.1-9.92t-4.1-9.92q-4.09-3.35-10.77-3.34H274.16v26.52h22.16Q303,334.31,307.09,331Z"/><path class="cls-2" d="M359.6,334.84a1.72,1.72,0,0,1,.54,1.25,1.65,1.65,0,0,1-.54,1.29,1.75,1.75,0,0,1-1.24.49H324.8a1.83,1.83,0,0,1-1.78-1.78V277.35a1.83,1.83,0,0,1,1.78-1.78h33.56a1.83,1.83,0,0,1,1.78,1.78,1.65,1.65,0,0,1-.54,1.29,1.75,1.75,0,0,1-1.24.49h-31.6V304h27.59a1.83,1.83,0,0,1,1.78,1.78,1.67,1.67,0,0,1-.53,1.29,1.78,1.78,0,0,1-1.25.49H326.76v26.79h31.6A1.71,1.71,0,0,1,359.6,334.84Z"/><path class="cls-2" d="M403.92,334.84a1.72,1.72,0,0,1,.54,1.25,1.65,1.65,0,0,1-.54,1.29,1.75,1.75,0,0,1-1.24.49H370a1.7,1.7,0,0,1-1.29-.53,1.82,1.82,0,0,1-.49-1.25V277.35a1.72,1.72,0,0,1,.54-1.25,1.82,1.82,0,0,1,1.33-.53,1.84,1.84,0,0,1,1.34.53,1.75,1.75,0,0,1,.53,1.25v57h30.71A1.71,1.71,0,0,1,403.92,334.84Z"/></g></g><g class="cls-3"><path class="cls-2" d="M228.6,233.26a28.07,28.07,0,0,1-10.66,11.47,31.61,31.61,0,0,1-31.14,0,28,28,0,0,1-10.66-11.47,38.89,38.89,0,0,1,0-33.66,28.07,28.07,0,0,1,10.66-11.47,31.61,31.61,0,0,1,31.14,0A28.13,28.13,0,0,1,228.6,199.6a38.89,38.89,0,0,1,0,33.66Zm-3.28-31.86A24.49,24.49,0,0,0,216,191.23a27.62,27.62,0,0,0-27.27,0,24.47,24.47,0,0,0-9.31,10.17,35.58,35.58,0,0,0,0,30.06,24.47,24.47,0,0,0,9.31,10.17,27.62,27.62,0,0,0,27.27,0,24.49,24.49,0,0,0,9.32-10.17,35.58,35.58,0,0,0,0-30.06Z"/><path class="cls-2" d="M286.52,185.47a1.73,1.73,0,0,1,.54,1.26,1.7,1.7,0,0,1-.54,1.31,1.8,1.8,0,0,1-1.26.49H253.13v24.84h28.08a1.85,1.85,0,0,1,1.8,1.8,1.7,1.7,0,0,1-.54,1.31,1.8,1.8,0,0,1-1.26.49H253.13v29.16a1.81,1.81,0,0,1-.5,1.26,1.68,1.68,0,0,1-1.3.54,1.7,1.7,0,0,1-1.31-.54,1.8,1.8,0,0,1-.49-1.26v-59.4a1.85,1.85,0,0,1,1.8-1.8h33.93A1.73,1.73,0,0,1,286.52,185.47Z"/><path class="cls-2" d="M341.15,185.47a1.73,1.73,0,0,1,.54,1.26,1.7,1.7,0,0,1-.54,1.31,1.8,1.8,0,0,1-1.26.49H307.76v24.84h28.08a1.85,1.85,0,0,1,1.8,1.8,1.7,1.7,0,0,1-.54,1.31,1.8,1.8,0,0,1-1.26.49H307.76v29.16a1.81,1.81,0,0,1-.5,1.26,1.68,1.68,0,0,1-1.3.54,1.7,1.7,0,0,1-1.31-.54,1.8,1.8,0,0,1-.49-1.26v-59.4a1.85,1.85,0,0,1,1.8-1.8h33.93A1.73,1.73,0,0,1,341.15,185.47Z"/></g></g></svg>